<?xml version="1.0" encoding="utf-8"?>
<!-- Svg Vector Icons : http://www.onlinewebfonts.com/icon -->
<!DOCTYPE svg PUBLIC "-//W3C//DTD SVG 1.1//EN" "http://www.w3.org/Graphics/SVG/1.1/DTD/svg11.dtd">
<svg fill="#6439FF" version="1.1" xmlns="http://www.w3.org/2000/svg" xmlns:xlink="http://www.w3.org/1999/xlink" x="0px" y="0px" viewBox="0 0 1000 1000" enable-background="new 0 0 1000 1000" xml:space="preserve">
<metadata> Svg Vector Icons : http://www.onlinewebfonts.com/icon </metadata>
<g><g transform="translate(0.000000,511.000000) scale(0.100000,-0.100000)"><path d="M103.8,4331.6c5.7-51.7,61.3-663,124.6-1362.5l113.1-1272.4L236-438.1L130.6-2572.9l59.4-86.2c44.1-63.2,72.8-86.3,105.4-86.3c26.8,0,47.9-11.5,47.9-24.9c0-19.2,38.3-19.2,207,3.8l207,26.8l138-51.8l138-53.7v-678.4v-678.4h2989.5h2989.5v139.9v139.9l69,32.6c59.4,28.8,67.1,40.3,57.5,86.2c-3.8,28.8-15.3,95.8-21.1,147.6c-9.6,78.6-24.9,107.3-82.4,157.1l-70.9,59.4l51.7,55.6c47.9,49.8,53.7,70.9,53.7,180.1c0,124.6,0,126.5-105.4,243.4L6856.9-2843l76.7,23c61.3,17.2,76.7,32.6,82.4,78.6c7.7,46-3.8,67.1-65.2,118.8l-74.7,65.1l176.3,161l176.3,162.9L7198-2157c-28.7,74.7-28.7,78.6,15.3,141.8l44.1,65.2l-67.1,69l-67.1,70.9l189.7,61.3c103.5,34.5,197.4,70.9,210.8,84.3c11.5,11.5,24.9,47.9,28.8,82.4c3.8,49.8-7.7,70.9-80.5,136.1l-84.3,74.7l113.1,55.6c105.4,51.8,115,63.3,143.7,151.4c26.8,90.1,32.6,95.8,101.6,101.6l70.9,5.7v115V-829h70.9c40.2,0,105.4,21.1,153.3,47.9l82.4,49.8v281.7c1.9,247.2,7.7,295.1,46,387.1c40.2,101.6,46,105.4,120.7,111.2l80.5,5.7l13.4,105.4l11.5,103.5l157.1,95.8c84.3,51.7,166.7,101.6,180.1,111.1c19.2,13.4,15.3,38.3-13.4,124.6l-38.3,107.3l95.8,59.4c72.8,44.1,107.3,82.4,145.7,162.9c46,93.9,57.5,105.4,113.1,105.4c32.6,0,72.8,15.3,92,36.4c28.8,32.6,28.8,49.8-7.7,279.8l-40.2,245.3l53.7,72.8c82.4,113.1,120.7,193.5,120.7,252.9c0,44.1,15.3,59.4,88.1,95.8c86.2,40.2,88.2,44.1,76.7,115c-7.7,46-1.9,90.1,17.3,128.4c26.8,49.8,24.9,63.2-9.6,143.7c-21.1,49.8-38.3,95.8-38.3,103.5c0,7.7,103.5,63.2,230,126.5c126.5,63.2,230,118.8,230,124.6c0,5.7-34.5,30.7-76.7,57.5c-42.2,26.8-76.7,51.7-76.7,57.5c0,5.7,17.3,30.7,34.5,53.7c32.6,40.2,42.2,44.1,103.5,26.8l67.1-19.2l-38.3,122.6c-40.3,120.7-42.2,122.6-109.2,122.6c-36.4,0-329.6-13.4-649.6-28.7c-321.9-15.3-588.3-24.9-592.1-19.2c-3.8,3.8,28.8,74.7,72.8,159c67.1,130.3,113.1,184,308.5,367.9l228.1,214.6v95.8c0,82.4-15.3,122.6-88.1,249.1l-88.2,149.5H6460.2c-1947,0-4164.2,21.1-6343,57.5C99.9,4421.7,96.1,4398.7,103.8,4331.6z"/></g></g>
</svg>
