<?xml version="1.0" encoding="utf-8"?>
<!-- Svg Vector Icons : http://www.onlinewebfonts.com/icon -->
<!DOCTYPE svg PUBLIC "-//W3C//DTD SVG 1.1//EN" "http://www.w3.org/Graphics/SVG/1.1/DTD/svg11.dtd">
<svg fill="#6439FF" version="1.1" xmlns="http://www.w3.org/2000/svg" xmlns:xlink="http://www.w3.org/1999/xlink" x="0px" y="0px" viewBox="0 0 1000 1000" enable-background="new 0 0 1000 1000" xml:space="preserve">
<metadata> Svg Vector Icons : http://www.onlinewebfonts.com/icon </metadata>
<g><g transform="translate(0.000000,512.000000) scale(0.100000,-0.100000)"><path d="M2471.9,5011c0-7.7-30.6-501.4-67-1096.6c-36.4-595.2-86.1-1399-109.1-1789.4l-42.1-708.1l89.9-325.4l90-325.4l122.5-124.4c67-68.9,145.4-170.3,174.2-225.8l49.8-103.4L2561.8-77.8c-172.2-306.2-223.9-411.5-233.5-491.8c-11.5-86.1-38.3-134-202.9-363.6L1936-1195.4v-130.1v-130.1l95.7-24.9c65.1-17.2,112.9-44,153.1-89.9l57.4-65.1l-40.2-101.4c-23-53.6-65.1-164.6-93.8-243.1l-53.6-143.5l-59.3-1251.6c-34.5-689-57.4-1253.5-55.5-1255.4c3.8-3.8,673.7-32.5,1488.9-65.1c1165.5-45.9,1820-61.2,3058.3-70.8l1577-13.4l-11.5,189.5c-5.7,103.3-21,851.7-30.6,1663.1c-11.5,811.5-24.9,1508.1-30.6,1550.2c-7.7,63.2-36.4,105.3-160.8,239.2l-153.1,162.7l-57.4-67c-55.5-65.1-59.3-93.8-24.9-183.7c11.5-30.6-11.5-32.5-382.8-21.1l-396.2,11.5l-63.2-74.6l-63.1-74.6l-124.4,17.2c-67,11.5-143.5,23-170.3,26.8c-42.1,7.6-57.4-5.7-103.4-78.5l-55.5-86.1l-70.8,74.6c-57.4,57.4-86.1,116.7-143.5,287.1l-70.8,216.3H5865c-72.7,0-95.7,9.6-151.2,65.1c-57.4,57.4-65.1,76.5-65.1,170.3c0,97.6-9.6,122.5-124.4,304.3c-109.1,174.2-128.2,220.1-164.6,392.3c-38.3,176.1-49.8,202.9-114.8,266l-72.7,70.8l-158.8-145.4L4852.6,50.4l-103.3,57.4c-57.4,32.5-112.9,65.1-122.5,74.6c-9.6,9.6-3.8,51.7,13.4,101.4c24.9,74.6,24.9,88-1.9,134c-30.6,49.8-30.6,51.7,47.8,118.7l78.5,67l-49.8,193.3c-44,179.9-45.9,197.1-17.2,218.2c23,15.3,51.7,114.8,90,308.1c30.6,156.9,61.2,306.2,67,331.1c11.5,45.9,11.5,45.9-112.9,34.5l-124.4-11.5l-40.2,67c-28.7,51.7-47.8,65.1-72.7,55.5c-17.2-7.6-45.9-17.2-61.2-21c-19.1-5.7-97.6,109.1-258.4,377l-229.7,384.7l-187.5,134c-174.2,124.4-185.6,135.9-158.9,166.5c26.8,28.7,26.8,36.4,0,76.6c-24.9,32.5-28.7,67-17.2,149.3l13.4,107.2l-153.1,222l-153.1,223.9l36.4,666c21.1,367.5,34.4,669.8,32.5,671.7c-3.8,3.8-164.6,15.3-359.8,26.8c-195.2,11.5-394.2,26.8-444,32.5C2512.1,5022.5,2471.9,5020.6,2471.9,5011z"/></g></g>
</svg>
