<?xml version="1.0" encoding="utf-8"?>
<!-- Svg Vector Icons : http://www.onlinewebfonts.com/icon -->
<!DOCTYPE svg PUBLIC "-//W3C//DTD SVG 1.1//EN" "http://www.w3.org/Graphics/SVG/1.1/DTD/svg11.dtd">
<svg fill="#6439FF" version="1.1" xmlns="http://www.w3.org/2000/svg" xmlns:xlink="http://www.w3.org/1999/xlink" x="0px" y="0px" viewBox="0 0 1000 1000" enable-background="new 0 0 1000 1000" xml:space="preserve">
<metadata> Svg Vector Icons : http://www.onlinewebfonts.com/icon </metadata>
<g><g transform="translate(0.000000,512.000000) scale(0.100000,-0.100000)"><path d="M4323.6,5003.7c-61.3-55.6-394.9-197.4-575.1-245.4c-203.2-53.7-216.6-55.6-331.6-28.8c-105.4,23-118.8,30.7-118.8,70.9c0,51.8-28.8,78.6-47.9,46c-9.6-13.4-38.3,1.9-78.6,42.2c-36.4,34.5-67.1,59.4-70.9,53.7c-3.8-3.8-34.5-1309.2-69-2902.1c-34.5-1591-65.2-2904.1-69-2917.5s-44.1-42.2-88.2-63.3l-80.5-42.2l13.4-143.8c11.5-136.1,7.7-149.5-47.9-251.1l-61.3-109.3l120.8-199.4l120.8-197.4l-19.2-101.6c-13.4-80.5-9.6-134.2,19.2-256.9l36.4-155.3l-155.3-218.5c-147.6-208.9-155.3-222.3-155.3-322v-105.4l-111.2-34.5c-97.8-28.8-111.2-38.3-105.4-74.8c9.6-51.7-143.8-343.1-172.5-331.6c-13.4,5.8-42.2-7.7-65.2-28.8c-30.7-28.8-47.9-32.6-76.7-19.2c-30.7,17.3-44.1,7.7-88.2-65.2l-51.8-86.3l47.9-63.3c26.8-34.5,47.9-72.8,47.9-84.3c0-11.5-34.5-49.8-76.7-82.4c-42.2-34.5-76.7-67.1-76.7-74.8c0-5.8,23-21.1,53.7-30.7l51.8-19.2l-63.2-32.6l-61.3-34.5v-180.2v-182.1l-53.7-11.5c-109.3-23-109.3-24.9-32.6-103.5c40.3-42.2,70.9-78.6,65.2-82.4c-3.8-3.8-28.8-15.3-55.6-24.9c-42.2-19.2-36.4-23,82.4-55.6l128.4-34.5l38.3,46c30.7,38.3,36.4,63.3,26.8,155.3c-15.3,136.1,3.8,147.6,141.9,93.9c78.6-30.7,122.7-36.4,224.3-26.8l124.6,11.5v-90.1c0-74.7,5.7-88.2,38.3-88.2c53.7,0,115,128.4,116.9,243.4v92l32.6-63.3c17.3-34.5,40.3-59.4,49.8-55.6c11.5,3.8,78.6,19.2,147.6,32.6l126.5,24.9l253-132.3c174.4-90.1,264.5-149.5,285.6-184c17.3-30.7,36.4-53.7,42.2-53.7s53.7,69,105.4,153.3c95.8,155.3,95.8,155.3,276,239.6c97.8,47.9,187.9,86.3,197.4,86.3s32.6-38.3,51.7-84.4c34.5-78.6,44.1-84.3,149.5-111.2c93.9-23,113.1-34.5,116.9-72.8c3.8-26.8,17.3-59.4,28.8-72.8c15.3-21.1,28.8-7.7,63.3,55.6c28.8,59.4,59.4,88.2,105.4,103.5l65.2,23l5.7,138c5.8,130.3,9.6,139.9,61.3,170.6c51.8,28.8,57.5,42.2,57.5,128.4c0,93.9,0,93.9,32.6,47.9c17.2-26.8,32.6-49.8,36.4-53.7c3.8-5.7,128.4,69,180.2,107.3c3.8,1.9-17.2,26.8-47.9,51.8l-57.5,47.9l97.8-40.3c97.7-40.3,99.7-40.3,122.7-155.3l24.9-115l193.6-126.5c107.3-69,203.2-124.6,214.7-124.6c11.5,0,67.1,34.5,124.6,78.6l105.4,78.6l23,187.9c21.1,161,34.5,205.1,101.6,316.3c80.5,136.1,90.1,143.8,155.3,109.3c32.6-17.3,61.3-11.5,151.4,30.7l111.2,53.7l63.3,184l63.3,184l76.7,15.3c61.3,13.4,93.9,38.3,166.8,126.5l92,113.1l-38.3,197.4c-21.1,107.4-36.4,199.4-32.6,201.3c1.9,3.8,92,11.5,199.4,19.2c178.3,11.5,197.4,9.6,251.1-28.8c32.6-21.1,67.1-40.3,80.5-40.3c11.5,0,122.7,55.6,247.3,124.6c212.8,116.9,231.9,124.6,350.8,124.6h124.6l13.4,88.2c17.2,136.1,17.2,139.9-55.6,153.3c-36.4,5.8-72.8,21.1-78.6,30.7c-5.8,9.6,11.5,51.7,40.2,93.9l49.8,76.7l-57.5,99.7l-57.5,99.7l57.5,47.9l55.6,47.9l-11.5,3279.8L8142,4996l-1236.4,11.5C5214.9,5024.8,4344.7,5024.8,4323.6,5003.7z"/></g></g>
</svg>
