<?xml version="1.0" encoding="utf-8"?>
<!-- Svg Vector Icons : http://www.onlinewebfonts.com/icon -->
<!DOCTYPE svg PUBLIC "-//W3C//DTD SVG 1.1//EN" "http://www.w3.org/Graphics/SVG/1.1/DTD/svg11.dtd">
<svg fill="#6439FF" version="1.1" xmlns="http://www.w3.org/2000/svg" xmlns:xlink="http://www.w3.org/1999/xlink" x="0px" y="0px" viewBox="0 0 1000 1000" enable-background="new 0 0 1000 1000" xml:space="preserve">
<metadata> Svg Vector Icons : http://www.onlinewebfonts.com/icon </metadata>
<g><g transform="translate(0.000000,511.000000) scale(0.100000,-0.100000)"><path d="M6922,2955.2c-163-99.7-214.7-122.7-281.9-122.7c-76.7,0-84.4-5.8-166.8-120.8c-61.3-86.3-128.4-149.6-226.2-214.8l-140-92l-565.6,23c-310.6,13.4-1493.6,65.2-2626.8,115c-1133.2,51.8-2063.1,90.1-2066.9,88.2c-1.9-1.9-172.6-552.2-377.7-1219.4L100,196.1l44.1-46c44.1-44.1,57.5-46,922.3-99.7c485.1-30.7,899.2-55.6,924.2-55.6c32.6,0,42.2-11.5,42.2-49.8c0-38.3,7.7-47.9,30.7-38.3c17.3,5.7,40.3,11.5,55.6,11.5c13.4,0,28.8,17.3,34.5,40.3c11.5,40.3,15.3,40.3,400.7,28.8C2769-20.5,3384.5-34,3921.3-43.5c538.8-9.6,1200.3-24.9,1470.6-30.7c567.5-15.3,502.3,17.2,525.4-262.7c11.5-151.5,17.2-172.6,57.5-189.8c36.4-17.2,46-40.3,57.5-147.6c28.8-272.3,28.8-276.1,155.3-412.2c113.1-124.6,118.9-128.5,143.8-90.1c17.2,26.8,44.1,40.3,86.3,40.3c55.6,0,72.9,13.4,132.3,105.5c38.4,57.5,72.9,105.5,76.7,105.5c3.8,0-36.4-90.1-88.2-201.3l-94-203.2l51.8-19.2c28.8-9.6,61.4-21.1,72.9-24.9c26.9-9.6,44.1-118.9,47.9-299.1c3.8-174.5,23-276.1,44.1-226.3c7.7,17.3,9.6,42.2,1.9,55.6c-9.6,15.3,1.9,17.2,42.2,9.6c47.9-11.5,57.5-5.8,74.8,40.3l21.1,53.7l24.9-51.8c21.1-46,21.1-57.5-7.7-90.1c-28.8-30.7-28.8-36.4-3.8-46c40.3-15.3,285.7,69,295.3,103.5c5.8,15.3,34.5,97.8,67.1,186l55.6,159.2l51.8-44.1c103.5-95.9,109.3-95.9,101.6-26.8c-5.8,55.6,1.9,70.9,59.4,115c55.6,42.2,74.8,47.9,107.4,32.6c51.7-28.8,49.8-30.7,88.2,55.6c23,49.9,47.9,76.7,70.9,76.7c28.8,0,34.5,15.3,34.5,107.4v107.4l82.4-61.4c76.7-55.6,80.5-57.5,86.3-19.2c7.7,42.2,24.9,47.9,55.6,17.3c15.3-15.3,11.5-44.1-15.3-107.4c-28.8-65.2-36.4-130.4-36.4-279.9c0-163-5.8-207.1-40.3-260.8c-21.1-34.5-34.5-67.1-28.8-72.9c3.8-5.7,107.4,13.4,230.1,40.3c120.8,26.8,224.3,49.9,228.2,49.9s59.5,65.2,120.8,143.8c61.4,78.6,117,143.8,124.6,143.8c5.8,0,26.9-17.2,44.1-36.4c32.6-36.4,36.4-36.4,199.4,19.2c90.1,30.7,170.7,55.6,180.2,55.6c7.7,0,9.6-24.9,3.8-57.5c-7.7-30.7-5.8-57.5,1.9-57.5c5.8,0,61.4,38.3,120.8,84.4l109.3,84.3l326,30.7c178.3,17.2,325.9,34.5,327.9,36.4c1.9,1.9,7.7,101.6,11.5,220.5l5.8,214.8h-72.9c-61.4,0-70.9,5.7-63.3,34.5c3.8,17.3,13.4,69,21.1,113.1l13.4,82.4l53.7-28.8c30.7-15.3,59.4-28.8,63.3-28.8S9869-584.2,9819.2-450c-109.3,304.9-220.5,454.4-435.2,588.6c-115,72.9-153.4,86.3-235.8,86.3c-78.6,0-99.7-7.7-117-40.3c-28.8-53.7-17.3-76.7,74.8-149.6l78.6-63.3l21.1,59.5c13.4,36.4,34.5,59.4,53.7,59.4c28.8,0,153.4-36.4,155.3-44.1c1.9-1.9,26.8-124.6,55.6-272.3l53.7-268.4l32.6,72.9c17.2,38.3,36.4,70.9,42.2,70.9c23,0,122.7-67.1,122.7-80.5c0-7.7-17.3-15.3-38.3-15.3c-46,0-46,13.4,1.9-184.1l42.2-163l-44.1-46c-55.6-59.4-605.9-295.3-743.9-316.4c-111.2-19.2-161.1-11.5-72.9,11.5c28.8,5.8,47.9,15.3,42.2,21.1c-3.8,3.8-76.7,19.2-161,32.6c-126.6,21.1-180.2,40.3-295.3,113.1c-205.2,126.6-205.2,128.5-232,379.7l-23,218.6l-99.7,36.4c-122.7,42.2-349,239.7-279.9,241.6c34.5,0,47.9,17.3,63.3,82.5c11.5,44.1,23,90.1,26.9,99.7c3.8,11.5,26.8-21.1,51.7-70.9c23-51.8,55.6-92,69-92c13.4,0,24.9,5.8,24.9,11.5c0,5.8-90.1,184.1-201.3,396.9l-201.3,387.3l-176.4,124.6c-95.9,69-187.9,132.3-203.2,141.9c-30.7,17.2-32.6,21.1,23-107.4l30.7-70.9l-72.9-19.2c-40.3-11.5-99.7-26.8-134.2-32.6c-57.5-11.5-61.4-9.6-61.4,46c0,46-11.5,61.4-57.5,76.7c-49.8,19.2-55.6,26.8-40.3,65.2c15.3,42.2,13.4,46-47.9,38.3c-36.4-3.8-65.2,0-65.2,11.5c0,11.5-5.8,32.6-11.5,47.9c-5.8,17.3,5.8,32.6,34.5,40.3l44.1,11.5l-53.7,34.5c-44.1,30.7-47.9,40.3-26.8,59.4c21.1,15.3,42.2,17.2,78.6,1.9c69-24.9,70.9-24.9,55.6,13.4c-13.4,32.6-11.5,32.6,38.4,0l51.8-32.6v138v140l86.3-5.8c95.9-7.7,99.7-3.8,55.6,65.2c-38.3,55.6-44.1,47.9,84.3,111.2c88.2,46,97.8,55.6,80.5,88.2c-23,44.1-28.8,46-78.6,19.2c-21.1-11.5-36.4-13.4-36.4-1.9c0,51.8,88.2,105.5,299.1,182.2c149.6,55.6,285.7,120.8,377.7,182.1l143.8,97.8L8036,2265c-17.2,47.9-38.3,92-44.1,99.7c-7.7,5.8-44.1-7.7-80.5-30.7c-59.4-34.5-69-51.8-69-111.2c0-69,0-69-30.7-26.8c-17.3,24.9-49.9,42.2-76.7,42.2c-63.3,0-122.7,32.6-122.7,67.1c0,15.3,15.3,28.8,34.5,28.8c17.3,0-21.1,30.7-86.3,69c-105.5,59.4-120.8,74.8-120.8,124.6c0,30.7,5.8,55.6,11.5,55.6c5.8,0,40.3-23,78.6-51.8l67.1-51.7l-32.6,76.7c-17.3,40.3-38.3,92-47.9,115c-7.7,21.1-59.4,72.9-115,115l-97.8,74.8l67.1,5.8c69,5.8,69,5.8,69,97.8v93.9l-109.3-3.8c-61.4,0-132.3,3.8-159.1,11.5C7132.9,3076,7081.2,3053,6922,2955.2z"/><path d="M9734.8-1542.9c-57.5-184.1-61.4-212.8-28.8-203.2c38.3,13.4,118.9,281.9,97.8,327.9C9788.5-1385.7,9777-1404.9,9734.8-1542.9z"/><path d="M7999.6-2091.3c-63.3-24.9-117-70.9-216.7-189.8C7662.1-2423,7641-2440.3,7541.3-2469l-111.2-32.6l86.3-74.8l84.4-72.9l136.1,72.9c128.5,70.9,147.6,76.7,362.4,90.1c184.1,9.6,222.4,17.2,214.7,40.3c-7.7,15.3-11.5,57.5-11.5,92c0,59.4-7.7,67.1-76.7,88.2c-86.3,26.8-95.9,44.1-38.3,74.8c32.6,17.3,34.5,26.9,15.3,67.1c-19.2,42.2-24.9,44.1-51.8,23c-69-59.4-84.4-59.4-70.9-5.8c5.8,26.8,9.6,49.8,7.7,47.9C8083.9-2058.7,8043.7-2074,7999.6-2091.3z"/><path d="M8413.7-2284.9c-30.7-34.5-53.7-69-53.7-76.7c0-24.9,111.2-120.8,120.8-103.5c5.7,7.7,3.8,67.1-3.8,128.5l-11.5,115L8413.7-2284.9z"/><path d="M9625.5-2384.6c17.3-30.7,11.5-57.5-38.3-145.7l-61.4-107.4l78.6,63.3l80.5,61.4l-34.5-69c-17.2-38.3-49.8-74.8-72.9-78.6c-21.1-5.7-115-23-210.9-38.3c-270.3-47.9-270.3-49.8-28.8-107.4c216.7-51.8,222.4-51.8,350.9-21.1c70.9,17.3,128.5,36.4,128.5,44.1c0,30.7-120.8,354.7-145.7,396.9C9635.1-2332.9,9596.8-2329.1,9625.5-2384.6z"/></g></g>
</svg>
