<?xml version="1.0" encoding="utf-8"?>
<!-- Svg Vector Icons : http://www.onlinewebfonts.com/icon -->
<!DOCTYPE svg PUBLIC "-//W3C//DTD SVG 1.1//EN" "http://www.w3.org/Graphics/SVG/1.1/DTD/svg11.dtd">
<svg fill="#6439FF"  version="1.1" xmlns="http://www.w3.org/2000/svg" xmlns:xlink="http://www.w3.org/1999/xlink" x="0px" y="0px" viewBox="0 0 1000 1000" enable-background="new 0 0 1000 1000" xml:space="preserve">
<metadata> Svg Vector Icons : http://www.onlinewebfonts.com/icon </metadata>
<g><g transform="translate(0.000000,512.000000) scale(0.100000,-0.100000)"><path d="M4605.4,4927.6c-40.3-55.7-314.7-431.8-608.4-838.7l-533.5-738.9l-40.3-312.8l-40.3-312.8l-97.9-92.1c-63.3-57.6-124.7-140.1-170.8-232.2c-67.2-132.4-71-147.8-51.8-228.4c17.3-76.8,15.4-94-21.1-143.9c-25-34.6-46.1-103.6-53.7-172.7c-11.5-99.8-7.7-126.7,25-178.5l38.4-63.3l-117.1-140.1c-107.5-128.6-117.1-149.7-117.1-232.2v-90.2l-155.5-71c-149.7-69.1-155.5-74.9-257.2-234.1l-103.6-163.1l55.7-99.8c32.6-55.7,57.6-109.4,57.6-119c0-40.3-111.3-42.2-186.2-3.8l-76.8,38.4l-63.3-201.5c-36.5-109.4-71-199.6-80.6-199.6c-7.7,0-40.3,51.8-72.9,115.2c-32.6,63.3-61.4,115.1-67.2,115.1c-3.8,0-38.4-17.3-74.8-40.3c-84.4-48-78.7,255.3-38.4-2320.2l30.7-2024.7l115.1-180.4c107.5-170.8,113.2-186.1,101.7-268.7c-9.6-74.8-3.8-103.6,44.1-188.1c49.9-92.1,57.6-97.9,84.5-71c24.9,25,38.4,26.9,72.9,7.7c23-11.5,44.1-19.2,46.1-15.4c3.8,3.8,57.6,130.5,119,282.1l113.2,276.3l151.6,117.1c84.4,63.3,163.1,122.8,172.7,130.5c13.4,9.6,7.7,23-15.4,40.3c-32.6,24.9-32.6,26.9,1.9,99.8c28.8,61.4,51.8,78.7,130.5,105.6c84.4,28.8,96,38.4,101.7,92.1c5.8,49.9-3.8,63.3-57.6,92.1c-61.4,30.7-61.4,32.6-21.1,51.8c24.9,9.6,59.5,61.4,84.4,122.8c30.7,74.8,63.3,117.1,120.9,157.4c251.4,170.8,337.8,186.1,261,48l-42.2-74.9l49.9,57.6c55.7,65.3,63.3,42.2,21.1-61.4c-15.4-36.5-28.8-71-28.8-76.8c0-3.8,38.4,23,86.4,63.3c67.2,55.7,86.4,82.5,88.3,130.5c0,49.9,3.8,53.7,15.4,21.1c9.6-21.1,26.9-96,40.3-167c26.9-136.3,36.5-149.7,76.8-101.7c24.9,30.7,23,53.7-23,418.4c-17.3,140.1-24.9,163.1-48,145.9c-15.3-13.4-32.6-15.4-44.1-5.8c-9.6,9.6,19.2,57.6,69.1,113.2l84.4,96l1.9-134.3c0-72.9,7.7-155.4,15.4-180.4c11.5-44.1,19.2-36.5,105.6,90.2c51.8,76.8,97.9,134.3,101.7,132.4c1.9-3.8-3.8-34.5-13.4-69.1c-11.5-42.2-11.5-76.8,1.9-101.7c11.5-19.2,13.4-55.6,7.7-78.7c-7.7-23-17.3-55.7-21.1-72.9c-5.8-21.1,5.8-34.6,40.3-40.3c46.1-9.6,48-5.8,48,84.4c0,69.1,15.3,119,53.7,184.2l51.8,90.2l5.8-143.9c3.8-163.1,17.3-230.3,40.3-230.3c7.7,0,57.6,99.8,109.4,222.6c92.1,218.8,94,222.6,99.8,143.9c5.8-76.8,7.7-78.7,72.9-78.7c48,0,63.3-7.7,53.7-23c-7.7-13.4,15.4,1.9,49.9,32.6l63.3,57.6l-13.4-51.8c-5.8-26.9-17.3-63.3-23-80.6c-13.4-34.5,15.4-40.3,71-11.5c23,13.4,36.5,40.3,36.5,74.9c0,48,15.4,65.2,105.6,115.2c105.6,59.5,105.6,59.5,105.6,153.5c0,72.9,21.1,142,97.9,301.3l95.9,207.3l-40.3,105.6c-21.1,55.6-36.5,105.5-32.6,109.4c1.9,3.8,65.3,30.7,138.2,63.3l134.3,55.7l5.8,97.9c5.8,107.5,13.4,113.2,63.3,67.2c32.6-28.8,32.6-36.5-13.5-161.2c-24.9-71-46-136.3-46-142c0-7.7,26.9,5.7,59.5,28.8l59.5,42.2l38.4-40.3l40.3-38.4l-84.5-42.2c-94-48-113.2-69.1-113.2-124.7c0-34.5,9.6-38.4,63.3-32.6c46.1,5.8,97.9-15.3,215-80.6c84.4-48,155.4-80.6,157.4-72.9c3.8,7.7-5.8,86.4-21.1,176.6c-13.5,90.2-21.1,170.8-17.3,178.5c5.8,9.6,42.2,13.4,80.6,9.6l71-5.8l-13.5,76.8c-21.1,107.5-23,105.5,30.7,105.5c42.2,0,48-7.7,48-74.8c0-99.8,24.9-111.3,63.3-30.7c28.8,61.4,36.5,65.3,80.6,48c84.5-32.6,92.1-25,78.7,61.4l-13.4,82.5l65.2-65.2l67.2-63.3l13.4,65.3l15.4,63.3l21.1-76.8c21.1-71,23-72.9,36.5-28.8l11.5,48l40.3-40.3c23-21.1,59.5-111.3,84.5-199.6l42.2-157.4l65.3,80.6l65.3,82.5l-44.2,74.9c-34.5,59.5-38.4,80.6-19.2,103.6c40.3,49.9,72.9,28.8,97.9-63.3l23-92.1l21.1,76.8l23,76.8l13.4-57.6c13.4-51.8,21.1-38.4,67.2,124.7c36.4,132.4,59.5,184.3,84.4,188.1c24.9,5.8,32.6-7.7,32.6-57.6v-63.3l44.1,67.2c40.3,65.3,42.2,65.3,48,19.2c1.9-26.9,9.6-69.1,15.4-96l9.6-46l40.3,61.4l38.4,61.4l49.9-38.4c59.5-48,71-34.6,90.2,111.3c15.4,109.4,23,113.2,145.8,49.9c57.6-28.8,74.9-19.2,74.9,38.4c1.9,32.6,7.7,28.8,34.5-23l34.5-63.3l36.5,40.3c34.5,38.4,34.5,40.3-5.8,124.7l-40.3,84.5l55.7,11.5c72.9,15.3,92.1,3.8,107.5-76.8c11.5-63.3,46.1-113.2,46.1-69.1c0,11.5,36.5,21.1,82.5,23c86.4,0,72.9-13.4,320.5,301.3l65.3,80.6l-55.7,57.6c-40.3,42.2-59.5,51.8-71,34.5c-9.6-17.3-15.4-13.4-15.4,13.4c-1.9,30.7-17.3,21.1-76.8-48c-53.7-63.3-76.8-78.7-84.5-57.6c-74.8,201.5-74.8,207.3,15.4,172.7c48-17.3,49.9-15.3,49.9,48c0,61.4,3.8,67.2,46.1,55.7c32.6-7.7,51.8-1.9,65.2,23c13.4,24.9-5.8,84.4-78.7,245.6c-53.7,117.1-105.6,218.8-117.1,226.5c-11.5,7.7-53.7,19.2-94,26.9c-59.5,9.6-82.5,3.8-117.1-28.8c-23-23-48-40.3-53.7-40.3c-5.8,0-55.6,51.8-109.4,113.2l-97.9,113.2l21.1,132.4c23,128.6,23,132.4-36.5,247.6l-59.5,117.1L7463,646c38.4,36.5,55.7,71,55.7,115.2c0,61.4-1.9,63.3-134.3,92.1c-96,23-184.2,61.4-309,138.2c-157.4,99.8-172.7,113.2-163.1,159.3c51.8,253.3,51.8,406.9,19.2,1710l-34.6,1333.8l-134.3,142c-86.4,88.3-230.3,203.4-385.7,309l-249.5,167l-99.8-84.5l-97.9-84.4l-65.3,32.6l-65.3,30.7l-293.6-145.9l-291.7-147.8l-113.2,99.8c-119,103.6-124.7,113.2-143.9,328.2l-11.5,128.6l-109.4,21.1c-59.5,11.5-120.9,24.9-132.4,28.8C4689.9,5023.6,4645.7,4983.3,4605.4,4927.6z"/><path d="M6121.5-1772.1c-76.8-26.9-84.4-36.5-138.2-170.8l-46-109.4l84.4-86.4c65.3-67.2,88.3-80.6,109.4-63.3c19.2,15.4,23,44.1,15.4,96l-13.4,72.9h96c82.5,0,96,5.8,105.5,42.2c7.7,23,1.9,55.7-11.5,72.9C6181-1747.2,6186.8-1751,6121.5-1772.1z"/><path d="M5543.9-2232.7c-30.7-126.7-28.8-145.9,26.9-145.9c53.7,0,55.6,5.8,26.9,59.5c-15.3,30.7-13.4,48,9.6,72.9c28.8,30.7,28.8,36.5-5.7,67.2C5566.9-2148.3,5565-2150.2,5543.9-2232.7z"/><path d="M5211.9-2568.5c5.8-40.3,23-63.3,63.3-80.6c63.3-25,65.2-25,82.5,34.5c11.5,36.5,1.9,48-57.6,72.9C5206.1-2503.3,5202.3-2503.3,5211.9-2568.5z"/><path d="M3780.2-3146.2c0-57.6,3.8-92.1,9.6-76.8c5.8,15.4,23,51.8,36.5,80.6c23,46,23,51.8,0,42.2c-15.4-5.8-30.7,3.8-36.5,24.9C3784-3056,3780.2-3088.7,3780.2-3146.2z"/></g></g>
</svg>
