<?xml version="1.0" encoding="utf-8"?>
<!-- Svg Vector Icons : http://www.onlinewebfonts.com/icon -->
<!DOCTYPE svg PUBLIC "-//W3C//DTD SVG 1.1//EN" "http://www.w3.org/Graphics/SVG/1.1/DTD/svg11.dtd">
<svg fill="#6439FF" version="1.1" xmlns="http://www.w3.org/2000/svg" xmlns:xlink="http://www.w3.org/1999/xlink" x="0px" y="0px" viewBox="0 0 1000 1000" enable-background="new 0 0 1000 1000" xml:space="preserve">
<metadata> Svg Vector Icons : http://www.onlinewebfonts.com/icon </metadata>
<g><g transform="translate(0.000000,511.000000) scale(0.100000,-0.100000)"><path d="M193.9,2910.2c0-9.6-21.1-272-47.9-588.1l-46-570.8l113-178.1c95.8-155.2,113-193.5,118.8-291.2c3.8-61.3,15.3-126.4,23-143.7c11.5-24.9,3.8-38.3-26.8-49.8c-36.4-13.4-24.9-26.8,118.8-141.8C598,828,615.3,806.9,803,494.7c109.2-182,206.9-333.3,216.5-341c11.5-5.7,32.6,0,47.9,13.4c30.7,24.9,36.4,21.1,86.2-63.2c13.4-26.8,44.1-34.5,122.6-34.5h105.4l-105.4-298.8l-105.4-300.7l40.2-153.2l38.3-153.2l-65.1-68.9c-55.6-57.5-67-86.2-76.6-183.9l-11.5-114.9l93.9-61.3l93.9-61.3l136,113c76.6,63.2,141.7,114.9,145.6,114.9c3.8,0,42.1-23,82.4-49.8c80.5-51.7,82.4-55.6,109.2-298.8c9.6-86.2,34.5-149.4,114.9-285.4c90-151.3,103.4-187.7,103.4-273.9v-99.6l114.9-65.1c103.4-59.4,118.8-74.7,153.2-170.5c21.1-59.4,51.7-143.7,69-187.7c28.7-82.4,130.2-187.7,160.9-168.6c9.6,5.7,21.1,36.4,28.7,67.1c13.4,65.1,17.2,65.1,205,36.4c132.2-21.1,136-21.1,214.5,34.5l78.5,57.5l229.9-15.3c126.4-7.7,270.1-15.4,319.9-15.4c90-1.9,90-1.9,72.8,47.9c-17.2,42.1-11.5,59.4,30.6,109.2c28.7,34.5,59.4,61.3,67,61.3c9.6,0,72.8-67,141.7-151.3l124.5-149.4v298.8v298.8h1450c1367.7,0,1534.3,3.8,2953.8,69c827.5,36.4,1507.5,68.9,1509.4,70.9c9.6,11.5-337.1,4708.4-348.6,4721.8c-3.9,3.8-1057.4-24.9-2340.8-63.2L4877.3,2709L2550,2816.3C-116.5,2938.9,193.9,2927.4,193.9,2910.2z"/></g></g>
</svg>
