<?xml version="1.0" encoding="utf-8"?>
<!-- Svg Vector Icons : http://www.onlinewebfonts.com/icon -->
<!DOCTYPE svg PUBLIC "-//W3C//DTD SVG 1.1//EN" "http://www.w3.org/Graphics/SVG/1.1/DTD/svg11.dtd">
<svg fill="#6439FF" version="1.1" xmlns="http://www.w3.org/2000/svg" xmlns:xlink="http://www.w3.org/1999/xlink" x="0px" y="0px" viewBox="0 0 1000 1000" enable-background="new 0 0 1000 1000" xml:space="preserve">
<metadata> Svg Vector Icons : http://www.onlinewebfonts.com/icon </metadata>
<g><g transform="translate(0.000000,512.000000) scale(0.100000,-0.100000)"><path d="M1033.9,4928.1c0-49.8-72.8-1694.5-162.7-3653.3c-90-1958.8-187.6-4109-218.3-4777.2c-30.6-668.3-53.6-1217.8-49.8-1221.6c5.7-5.7,1183.3-61.3,1191-55.5c1.9,1.9,13.4,172.3,26.8,377.2c11.5,204.9,28.7,381,36.4,388.7c11.5,13.4,1956.9-45.9,2372.3-70.8l139.8-9.6l-47.9,51.7c-46,47.9-166.6,285.3-166.6,329.4c0,13.4,848.2,19.1,2621.2,19.1h2621.2l-7.6,4218.1c-5.8,2318.7-13.4,4245-19.1,4279.4l-9.6,61.3H7195.4c-2111.9,0-2207.7,1.9-3948.1,67c-980.3,36.4-1880.3,70.8-1997.1,76.6l-216.4,11.5V4928.1z"/></g></g>
</svg>
