<?xml version="1.0" encoding="utf-8"?>
<!-- Svg Vector Icons : http://www.onlinewebfonts.com/icon -->
<!DOCTYPE svg PUBLIC "-//W3C//DTD SVG 1.1//EN" "http://www.w3.org/Graphics/SVG/1.1/DTD/svg11.dtd">
<svg fill="#6439FF" version="1.1" xmlns="http://www.w3.org/2000/svg" xmlns:xlink="http://www.w3.org/1999/xlink" x="0px" y="0px" viewBox="0 0 1000 1000" enable-background="new 0 0 1000 1000" xml:space="preserve">
<metadata> Svg Vector Icons : http://www.onlinewebfonts.com/icon </metadata>
<g><g transform="translate(0.000000,511.000000) scale(0.100000,-0.100000)"><path d="M6037.6,3769.6c-198.2-97.1-279.8-153.5-509-343.9c-258.4-217.6-275.9-237-367.2-406.1c-52.5-97.1-118.5-192.3-145.7-209.8c-27.2-17.5-71.9-46.6-103-64.1l-52.5-33l46.6,52.5l48.6,52.5l-62.2-21.4c-48.6-17.5-60.2-31.1-52.5-58.3c9.7-27.2-25.3-60.2-169-155.4c-99.1-66.1-188.5-126.3-198.2-134.1c-17.5-17.5,27.2-155.4,50.5-155.4c9.7,0,36.9,13.6,62.2,29.1c36.9,25.3,54.4,25.3,97.1,7.8c44.7-21.4,46.6-27.2,25.3-54.4c-64.1-73.8-62.2-85.5,13.6-71.9c38.9,7.8,70,7.8,70,1.9c0-7.8-40.8-66.1-91.3-130.2c-81.6-104.9-93.3-112.7-103-73.8c-9.7,42.7-9.7,42.7-44.7,3.9c-35-38.9-35-44.7,7.8-202.1c23.3-87.4,50.5-163.2,60.2-167.1c33-13.6,13.6-104.9-36.9-169c-50.5-64.1-58.3-66.1-151.5-56.3l-97.1,11.7l-178.8-157.4c-171-151.6-184.6-157.4-312.8-178.8c-112.7-19.4-139.9-31.1-157.4-68c-11.7-25.3-27.2-46.6-36.9-46.6c-9.7,0-116.6,21.4-239,48.6c-215.7,48.6-223.4,48.6-361.4,17.5l-139.9-31.1l-104.9,85.5l-104.9,85.5l-378.9,54.4l-380.8,54.4l-423.6-71.9c-235.1-40.8-427.4-73.8-427.4-75.8c-1.9,0-9.7-68-17.5-149.6l-13.6-147.7l108.8-44.7c60.2-25.3,108.8-54.4,108.8-64.1c0-17.5-33-11.7-101,15.5c-27.2,11.7-35,3.9-35-33c0-25.3,11.7-58.3,23.3-69.9c19.4-19.4,31.1-15.6,60.2,19.4l35,44.7l-21.4-42.7c-13.6-31.1-15.5-79.7,0-165.1c33-205.9,31.1-213.7-77.7-272c-64.1-36.9-118.5-89.4-171-165.2C916-42.5,884.9-63.8,519.7-281.4C306-407.7,125.3-526.3,121.4-543.7c-5.8-15.5-11.7-116.6-15.6-223.4L100-961.5l2762.9-108.8c1521.3-58.3,2766.7-110.8,2772.6-116.6c3.9-3.9,29.1-52.5,56.3-104.9c42.8-85.5,62.2-104.9,155.4-141.8c118.5-50.5,128.3-71.9,130.2-305c1.9-79.7,15.5-143.8,44.7-202.1c38.8-77.7,56.3-91.3,192.4-145.7c112.7-44.7,161.3-75.8,194.3-126.3c31.1-46.6,180.7-145.7,520.7-351.7c262.3-157.4,478-283.7,481.9-281.7c3.9,3.9-13.6,103-36.9,221.5c-35,174.9-36.9,221.5-17.5,244.8c13.6,15.5,31.1,29.2,38.8,29.2c5.8,0,29.2-106.9,46.6-239l35-239l-58.3-182.6c-91.3-287.6-91.3-293.4-42.7-219.6c29.2,44.7,60.2,64.1,114.6,73.8c58.3,9.7,73.8,19.4,66.1,44.7c-3.9,21.4,31.1,71.9,99.1,137.9l108.8,106.9l-50.5,85.5c-27.2,46.6-46.6,87.4-42.8,91.3c1.9,1.9,69.9,46.6,147.7,95.2c75.8,50.5,139.9,95.2,139.9,101c0,5.8-17.5,33-40.8,64.1l-40.8,54.4l31.1,678.1l29.1,678.1L8083.6-468l147.7,553.7l-15.5,680c-11.7,481.9-23.3,695.6-40.8,726.7l-23.3,44.7l-64.1-40.8c-64.1-38.9-66-38.9-75.8-1.9c-3.9,19.4,5.8,101,23.3,180.7c33,137.9,31.1,147.7-13.6,376.9l-46.6,235.1l68,163.2c46.6,106.9,75.8,219.5,89.4,328.4c21.4,157.4,19.4,174.9-29.1,310.9c-48.6,141.8-50.5,155.4-38.9,472.1l11.7,324.5h-901.5h-899.6L6037.6,3769.6z"/><path d="M4733.9,2701c-15.5-9.7-19.4-19.4-9.7-19.4c11.7,0,33,9.7,48.6,19.4c15.5,9.7,21.4,19.4,9.7,19.4C4772.8,2720.4,4749.5,2710.7,4733.9,2701z"/><path d="M4570.7,2221.1c-11.7-27.2-9.7-29.1,9.7-11.7c13.6,13.6,19.4,29.1,13.6,35C4588.2,2250.2,4576.5,2240.5,4570.7,2221.1z"/><path d="M9855.5-2348.7c-23.3-9.7-29.1-19.4-17.5-27.2c11.7-7.8,31.1,0,44.7,15.5C9909.9-2327.4,9908-2327.4,9855.5-2348.7z"/><path d="M9233.8-2731.5c-159.3-132.1-182.6-143.8-262.3-145.7c-50.5,0-186.5-7.8-303.1-15.5c-171-11.7-231.2-25.3-293.4-60.2c-77.7-44.7-81.6-44.7-188.5-15.5l-110.7,31.1l21.4-40.8c23.3-42.7,23.3-42.7-25.3,1.9l-48.6,42.8l-21.4-48.6c-19.4-40.8-35-48.6-110.8-48.6c-83.5,0-89.4-3.9-99.1-58.3c-15.5-69.9-29.1-71.9-64.1-15.5c-27.2,42.8-27.2,42.8-62.2-38.8c-31.1-71.9-42.8-81.6-99.1-81.6c-110.7,0-149.6-21.4-219.6-120.5c-56.3-77.7-68-108.8-58.3-153.5c15.5-71.9,29.1-77.7,110.8-54.4c54.4,13.6,68,25.3,60.2,54.4c-11.7,48.6,60.2,71.9,122.4,38.9c25.3-13.6,46.6-31.1,46.6-36.9c0-7.8-40.8-33-91.3-56.3c-52.5-23.3-79.6-36.9-62.2-33c19.4,5.8,95.2,15.5,171,23.3c75.8,5.8,137.9,21.4,137.9,29.1c0,9.7-19.4,17.5-42.8,17.5c-106.9,0,38.9,44.7,645.1,194.3l650.9,161.3l402.2,186.5c221.5,101,400.2,188.5,396.3,190.4c-3.9,3.9-31.1-2-60.2-13.6c-46.6-17.5-62.2-13.6-101.1,21.4c-40.8,38.9-44.7,40.8-44.7,7.8c0-29.1-11.7-33-87.4-23.3l-85.5,11.7l-91.3-114.6c-89.4-114.6-93.3-116.6-184.6-116.6c-52.5,0-95.2,7.8-95.2,17.5c0,7.8,97.1,97.1,215.6,196.2c153.5,128.2,206,184.6,188.5,196.2C9441.7-2568.3,9404.8-2587.7,9233.8-2731.5z"/><path d="M8441.1-3378.5c-103-38.8-192.3-75.8-200.1-81.6c-31.1-31.1,207.9,40.8,310.9,95.2C8703.3-3287.2,8674.2-3291.1,8441.1-3378.5z"/><path d="M7133.5-3471.8c-27.2-3.9-50.5-36.9-71.9-99.1c-17.5-48.6-31.1-91.3-29.2-95.2c3.9-1.9,50.5,23.3,106.9,58.3c73.8,44.7,101,73.8,101,104.9C7240.3-3458.2,7224.8-3452.3,7133.5-3471.8z"/><path d="M8052.5-3471.8c11.7-3.9,35-3.9,48.6,0c11.7,5.8,2,9.7-25.3,9.7S8038.8-3465.9,8052.5-3471.8z"/></g></g>
</svg>
