<?xml version="1.0" encoding="utf-8"?>
<!-- Svg Vector Icons : http://www.onlinewebfonts.com/icon -->
<!DOCTYPE svg PUBLIC "-//W3C//DTD SVG 1.1//EN" "http://www.w3.org/Graphics/SVG/1.1/DTD/svg11.dtd">
<svg fill="#6439FF" version="1.1" xmlns="http://www.w3.org/2000/svg" xmlns:xlink="http://www.w3.org/1999/xlink" x="0px" y="0px" viewBox="0 0 1000 1000" enable-background="new 0 0 1000 1000" xml:space="preserve">
<metadata> Svg Vector Icons : http://www.onlinewebfonts.com/icon </metadata>
<g><g transform="translate(0.000000,511.000000) scale(0.100000,-0.100000)"><path d="M134.5,2276.5c-7.7-118.7-17.2-273.8-23-344.6L100,1801.7h91.9c51.7,0,779.2-26.8,1615.9-57.4s1560.4-57.4,1606.3-57.4h82.3L3485,792.7c-5.8-494-17.2-1100.9-23-1349.8l-11.5-455.7h53.6c44,1.9,82.3-26.8,189.5-143.6l134-145.5l147.4-11.5l147.4-11.5l24.9,55.5c11.5,30.6,24.9,59.4,28.7,63.2c3.8,5.7,53.6-38.3,111-93.8c84.2-82.3,105.3-116.8,105.3-164.6v-59.4l268-72.7c222.1-59.3,279.5-67,338.9-53.6c67,17.2,78.5,13.4,135.9-40.2l61.3-57.4l86.2,42.1c65.1,32.6,122.5,42.1,227.8,42.1c151.3,0,162.7-9.6,164.7-128.3c0-32.5,15.3-44,76.6-53.6c76.6-13.4,80.4-19.2,105.3-137.9c17.2-90,74.7-82.3,225.9,32.5l126.4,95.7l112.9-128.3l114.9-128.3l114.9,51.7c63.2,28.7,122.5,51.7,134,51.7c11.5,0,36.4-47.9,53.6-105.3c19.1-57.4,38.3-105.3,46-105.3c5.7,0,26.8,40.2,44,90c32.6,88.1,145.5,197.2,204.9,197.2c13.4,0,63.2-28.7,113-65.1l88.1-65.1l90,34.5c84.2,32.5,90,32.5,97.6,0c3.8-19.2,74.7-78.5,157-134l147.4-99.6l49.8,47.9c28.7,26.8,130.2,88.1,227.8,135.9c166.6,82.3,180,86.2,268,68.9c88.1-17.2,95.7-15.3,199.1,57.4l107.2,74.7l65.1-67c91.9-93.8,181.9-91.9,298.7,11.5l86.2,74.7l135.9-67c76.6-38.3,172.3-101.5,214.4-143.6c63.2-59.4,114.9-84.2,294.9-141.7c120.6-36.4,220.2-65.1,224-61.3c3.8,3.8-1.9,543.7-13.4,1200.4l-19.2,1196.6l-122.5,777.3c-105.3,666.3-124.4,829-135.9,1143l-13.4,367.6h-375.3c-206.8,0-1261.7-13.4-2347.3-28.7l-1972-30.6l-2217.1,68.9c-1219.6,36.4-2289.8,67-2377.9,67H146L134.5,2276.5z"/></g></g>
</svg>
