<?xml version="1.0" encoding="utf-8"?>
<!-- Svg Vector Icons : http://www.onlinewebfonts.com/icon -->
<!DOCTYPE svg PUBLIC "-//W3C//DTD SVG 1.1//EN" "http://www.w3.org/Graphics/SVG/1.1/DTD/svg11.dtd">
<svg fill="#6439FF" version="1.1" xmlns="http://www.w3.org/2000/svg" xmlns:xlink="http://www.w3.org/1999/xlink" x="0px" y="0px" viewBox="0 0 1000 1000" enable-background="new 0 0 1000 1000" xml:space="preserve">
<metadata> Svg Vector Icons : http://www.onlinewebfonts.com/icon </metadata>
<g><g transform="translate(0.000000,511.000000) scale(0.100000,-0.100000)"><path d="M1088.2,3524.8c26.8-149.4,26.8-159-13.4-239.4c-72.8-151.3-44.1-520.9,40.2-499.9c46,13.4,44,0-11.5-91.9l-47.9-76.6l49.8-65.1c40.2-51.7,44-67,23-80.4c-42.1-26.8-55.5-21.1-57.5,26.8c-1.9,32.6-5.7,28.7-23-21.1c-13.4-47.9-13.4-74.7,5.7-109.2c23-42.1,21.1-53.6-15.3-91.9c-36.4-38.3-42.1-67-42.1-218.3c0-126.4-15.3-239.4-57.5-413.7c-63.2-262.4-80.4-576.5-34.5-622.4c17.2-17.2,15.3-23-7.7-23c-23,0-36.4-34.5-55.5-134.1c-21.1-122.6-21.1-137.9,11.5-172.4c28.7-30.6,28.7-38.3,5.7-28.7c-44,17.2-80.4-145.6-159-697.1c-76.6-540.1-72.8-486.5-47.9-471.1c24.9,15.3,24.9-1.9-3.8-53.6c-11.5-23-59.4-139.8-103.4-260.5L462-1037.2l82.3,80.4l82.4,80.4l23-88.1c24.9-99.6,21.1-122.6-17.2-76.6c-38.3,45.9-53.6,36.4-109.2-70.9l-51.7-101.5l-11.5,61.3c-17.2,113-57.5,40.2-116.8-216.4c-44-187.7-80.4-287.3-151.3-419.4L100-1960.3l93.8-164.7l91.9-164.7L257-2527.2c-26.8-220.2-26.8-250.9,3.8-436.7c30.6-183.9,40.2-206.9,114.9-298.8l82.3-101.5l273.9-11.5c151.3-5.8,1174-30.6,2275.2-53.6c1999.4-42.1,2003.3-42.1,4242.1-7.6c1233.4,19.2,2242.7,36.4,2244.6,38.3c1.9,1.9-32.6,693.3-74.7,1537.9l-80.4,1536l49.8,162.8c42.1,137.9,46,176.2,30.6,241.3c-19.2,72.8-17.2,82.3,30.7,132.1l49.8,51.7l-59.4,80.4c-55.5,76.6-59.4,78.5-185.8,84.3l-128.3,5.7l-15.3,91.9c-13.4,82.4-3.8,128.3,76.6,383c82.4,258.5,103.4,308.3,201.1,440.5c99.6,134.1,111.1,157,111.1,243.2c0,76.6,36.4,183.9,199.2,572.6l201.1,478.8l-65.1,149.4c-63.2,145.5-67,149.4-185.8,206.8c-109.2,51.7-128.3,70.9-201.1,189.6l-78.5,134.1l-189.6-3.8c-103.4-1.9-660.7-17.2-1241-34.5l-1053.4-30.6l-53.6-49.8c-49.8-47.9-70.9-51.7-344.7-72.8l-291.1-21.1l-379.2-166.6l-379.2-164.7h-229.8c-227.9,0-229.8,0-377.3-74.7c-118.7-59.4-176.2-76.6-302.6-86.2l-155.1-13.4l-80.4,67c-46,38.3-95.8,68.9-111.1,68.9c-15.3,0-151.3,9.6-300.7,21.1l-270,21.1l-273.9-130.2l-272-128.3l-264.3,80.4c-143.6,46-268.1,88.1-275.8,95.8c-7.7,5.8-44,149.4-82.3,317.9c-38.3,168.5-72.8,319.8-78.5,339c-5.7,17.2-65.1,74.7-136,128.3c-137.9,107.3-183.9,116.8-302.6,67c-70.9-28.7-201.1-24.9-201.1,7.7c0,7.7-23,38.3-47.9,67l-47.9,53.6l-107.3-30.6c-68.9-19.2-136-26.8-189.6-19.2c-51.7,9.6-86.2,5.7-93.8-7.7c-9.6-13.4-38.3-7.7-88.1,17.2c-42.1,21.1-78.5,38.3-82.3,38.3C1063.3,3679.9,1072.9,3609.1,1088.2,3524.8z M1289.3,3517.1c-13.4-40.2-24.9-36.4-24.9,11.5c0,21.1,7.7,34.5,19.2,26.8C1293.2,3549.7,1297,3532.5,1289.3,3517.1z M756.9-495.2c15.3-24.9-9.6-24.9-47.9,0c-24.9,15.3-24.9,19.2,3.8,19.2C730.1-476,751.2-483.7,756.9-495.2z"/></g></g>
</svg>
