<?xml version="1.0" encoding="utf-8"?>
<!-- Svg Vector Icons : http://www.onlinewebfonts.com/icon -->
<!DOCTYPE svg PUBLIC "-//W3C//DTD SVG 1.1//EN" "http://www.w3.org/Graphics/SVG/1.1/DTD/svg11.dtd">
<svg fill="#6439FF" version="1.1" xmlns="http://www.w3.org/2000/svg" xmlns:xlink="http://www.w3.org/1999/xlink" x="0px" y="0px" viewBox="0 0 1000 1000" enable-background="new 0 0 1000 1000" xml:space="preserve">
<metadata> Svg Vector Icons : http://www.onlinewebfonts.com/icon </metadata>
<g><g transform="translate(0.000000,511.000000) scale(0.100000,-0.100000)"><path d="M1213.8,2771c-289-145.4-327.2-160.7-287.1-112.9c40.2,47.8,3.8,32.5-101.4-44c-55.5-40.2-204.8-118.7-333-174.1l-231.5-101.4l-11.5-195.2c-5.7-105.3-36.4-1119.5-68.9-2250.5c-30.6-1131-61.2-2166.3-68.9-2298.3l-11.5-243l2964.3-11.5c1628.5-5.7,3442.7-15.3,4028.3-22.9l1065.9-9.6l67,101.4c47.8,76.5,88,112.9,156.9,145.4c90,42.1,97.6,42.1,227.8,15.3l132.1-26.8l246.9,97.6c208.6,84.2,246.9,107.2,254.5,147.4c5.8,26.8,15.3,63.1,19.1,80.4c5.7,17.2,151.2,137.8,323.4,266l313.8,235.4l-82.3,95.7c-44,53.6-139.7,168.4-210.5,256.4c-95.7,116.7-141.6,156.9-176,156.9c-40.2,0-49.8,17.2-93.8,162.7c-49.7,162.7-49.7,162.7-114.8,162.7c-122.5,0-124.4,1.9-124.4,227.7v202.9l72.7,40.2c51.7,30.6,80.4,65.1,101.4,124.4c30.6,84.2,30.6,84.2-34.5,216.2l-67,132.1l153.1,155c114.8,114.8,185.6,210.5,279.4,375.1c99.5,178,137.8,227.7,191.4,254.5l67,30.6l-30.6,88c-32.5,97.6-28.7,95.7-283.2,176.1c-168.4,53.6-172.2,55.5-231.5,155c-49.8,82.3-65.1,139.7-84.2,287.1c-42.1,350.2-28.7,317.7-151.2,367.4c-135.9,55.5-149.3,67-164.6,132c-5.7,30.6-44,80.4-86.1,114.8l-74.6,59.3H5129.2H1502.7l-5.7,285.1l-5.7,285.1L1213.8,2771z"/></g></g>
</svg>
