<?xml version="1.0" encoding="utf-8"?>
<!-- Svg Vector Icons : http://www.onlinewebfonts.com/icon -->
<!DOCTYPE svg PUBLIC "-//W3C//DTD SVG 1.1//EN" "http://www.w3.org/Graphics/SVG/1.1/DTD/svg11.dtd">
<svg fill="#6439FF" version="1.1" xmlns="http://www.w3.org/2000/svg" xmlns:xlink="http://www.w3.org/1999/xlink" x="0px" y="0px" viewBox="0 0 1000 1000" enable-background="new 0 0 1000 1000" xml:space="preserve">
<metadata> Svg Vector Icons : http://www.onlinewebfonts.com/icon </metadata>
<g><g transform="translate(0.000000,512.000000) scale(0.100000,-0.100000)"><path d="M4265.5,4991.8c-653.3-11.5-1354.5-23-1555.7-24.9L2340,4965V2125.6V-715.6l-47.9-525c-26.8-289.3-49.8-526.9-53.6-528.8c-1.9-1.9-23-15.3-47.9-26.8c-26.8-13.4-67.1-74.7-99.6-145.6c-46-101.5-63.2-191.6-105.4-528.8c-26.8-222.2-47.9-406.2-44.1-410c3.8-1.9,174.3,28.7,379.3,69c341,65.1,436.8,93.9,1080.6,323.8c682.1,241.4,712.7,251,900.5,260.6c187.8,11.5,199.3,9.6,390.8-57.5c157.1-53.6,205-63.2,239.5-47.9c30.7,15.3,114.9,176.3,310.4,588.2l268.2,569l-3.8,385.1l-1.9,385.1l-88.1,193.5c-47.9,107.3-88.1,205-88.1,214.6c0,11.5,61.3,113,136,224.2c86.2,128.3,147.5,241.4,164.8,306.5c24.9,99.6,24.9,107.3-44.1,323.8l-70.9,220.3l-103.5,51.7l-101.5,51.7l103.5,103.5l103.5,101.6l93.9-30.7c53.6-17.2,122.6-61.3,159-97.7c36.4-36.4,70.9-67.1,76.6-67.1s53.6,86.2,105.4,191.6c92,187.8,93.9,191.6,63.2,254.8c-17.2,34.5-74.7,111.1-128.3,170.5l-97.7,107.3l3.8,429.2l5.7,427.2l78.6-149.4c51.7-97.7,103.4-239.5,147.5-406.2c61.3-235.7,72.8-262.5,137.9-320c90-80.5,302.7-208.8,318-191.6c5.8,7.7,24.9,86.2,44.1,174.3c17.2,88.1,34.5,164.8,38.3,168.6c17.2,17.2,128.3-55.6,120.7-76.6c-3.8-13.4-49.8-176.3-99.6-364l-93.9-342.9l36.4-141.8c32.6-128.4,40.2-143.7,76.6-134.1c21.1,5.7,82.4,19.2,134.1,30.6c67.1,13.4,130.3,47.9,205,107.3l107.3,88.1l13.4,178.2l13.4,178.2l-122.6,212.7c-118.8,205-128.4,216.5-341,383.2c-120.7,93.9-264.4,216.5-318,274l-97.7,101.5l24.9,459.8c13.4,252.9,24.9,486.6,24.9,519.2c1.9,55.6-3.8,61.3-69,72.8c-40.2,7.7-116.9,21.1-168.6,32.6l-97.7,19.2l-42.1,645.6c-24.9,354.4-47.9,664.8-53.6,689.7c-7.7,40.2-15.3,42.2-185.8,38.3C5533.8,5018.6,4918.8,5005.2,4265.5,4991.8z"/><path d="M7411.4,999.1c-42.2-137.9-55.6-226.1-63.2-436.8c-9.6-235.7-3.8-306.5,55.5-707c61.3-406.2,65.1-454.1,42.2-542.2c-23-90.1-21.1-105.4,36.4-289.3l59.4-195.4l258.6,249.1l258.7,251L8034-219.4c-23,433-24.9,457.9-72.8,530.7l-49.8,78.6l49.8,289.3c26.8,160.9,42.1,297,34.5,304.6c-15.3,15.3-488.6,187.8-513.5,187.8C7472.7,1171.5,7440.1,1093,7411.4,999.1z"/><path d="M7043.5,817.1C6940,727,6848.1,642.8,6840.4,631.3c-5.8-13.4-32.6-109.2-57.5-212.7c-42.2-176.3-51.7-195.4-164.8-331.5c-116.9-141.8-120.7-149.4-120.7-256.7c0-88.1-15.3-145.6-70.9-268.2l-69-155.2l59.4-137.9c34.5-76.6,61.3-143.7,61.3-151.4c0-5.7-76.6-55.6-170.5-109.2l-168.6-97.7l-23-116.9c-19.2-97.7-19.2-120.7,1.9-134.1c40.2-26.8,51.7-21.1,160.9,70.9c95.8,82.4,105.4,86.2,162.9,67.1c34.5-11.5,70.9-21.1,84.3-21.1c11.5,0,88.1,82.4,172.4,182c82.4,101.5,159,180.1,170.5,176.3c109.2-40.3,226.1-72.8,233.7-65.1c3.8,3.8,1.9,28.7-7.7,53.6c-9.6,24.9-7.7,318,1.9,649.5c17.3,570.9,21.1,618.8,80.5,906.2c34.5,164.8,61.3,300.8,59.4,300.8C7237,978,7148.9,905.2,7043.5,817.1z"/><path d="M5830.8-232.8c-72.8-300.8-72.8-304.6-23-348.7c51.7-47.9,47.9-63.2-26.8-143.7c-63.2-65.1-67.1-74.7-78.6-258.6c-9.6-157.1-7.7-199.3,17.3-229.9c26.8-36.4,30.6-36.4,130.3,61.3l101.5,99.6l53.6,312.3c32.6,193.5,51.7,381.3,51.7,494.3v182l-76.6,44.1c-40.2,23-78.5,42.1-82.4,42.1C5894,22,5863.3-92.9,5830.8-232.8z"/><path d="M4140.9-4064.6v-143.7l-103.5-53.6c-99.6-51.7-105.4-59.4-141.8-178.2c-44.1-149.4-28.7-237.6,49.8-302.7c76.6-63.2,247.2-44.1,383.2,44.1c53.7,36.4,99.6,70.9,99.6,74.7c0,5.8-30.7,70.9-67.1,143.7c-63.2,124.5-67.1,143.7-67.1,323.8c0,183.9-1.9,189.7-46,201.2c-24.9,5.7-59.4,17.2-76.6,23C4144.8-3922.8,4140.9-3940,4140.9-4064.6z"/></g></g>
</svg>
