<?xml version="1.0" encoding="utf-8"?>
<!-- Svg Vector Icons : http://www.onlinewebfonts.com/icon -->
<!DOCTYPE svg PUBLIC "-//W3C//DTD SVG 1.1//EN" "http://www.w3.org/Graphics/SVG/1.1/DTD/svg11.dtd">
<svg fill="#6439FF" version="1.1" xmlns="http://www.w3.org/2000/svg" xmlns:xlink="http://www.w3.org/1999/xlink" x="0px" y="0px" viewBox="0 0 1000 1000" enable-background="new 0 0 1000 1000" xml:space="preserve">
<metadata> Svg Vector Icons : http://www.onlinewebfonts.com/icon </metadata>
<g><g transform="translate(0.000000,511.000000) scale(0.100000,-0.100000)"><path d="M2039.5,4001.8c-34.5-44.1-76.7-57.6-287.8-103.6c-222.5-46-251.3-57.5-314.6-118.9c-67.1-65.2-88.2-72.9-450.8-151.5l-381.8-82.5l-201.4-214.9c-174.6-188-207.2-234-251.3-351.1L100,2843.1l180.3-122.8c109.3-74.8,230.2-178.4,312.7-270.5l136.2-151.5l188-49.9l186.1-51.8l130.4-358.7c120.9-330,140-370.2,251.3-508.4c76.7-95.9,132.4-186.1,151.5-251.3c30.7-97.8,42.2-109.3,339.6-335.7l305-236l97.8-205.3l97.8-203.3l118.9-46.1c90.2-34.5,151.6-76.7,249.4-170.7c117-115.1,128.5-134.3,128.5-205.3c0-161.2,19.2-207.2,107.4-278.2c74.8-59.5,82.5-72.9,72.9-124.7c-9.6-51.8,0-67.1,65.2-118.9c51.8-42.2,80.6-82.5,88.2-128.5c11.5-61.4,30.7-76.7,268.6-212.9l255.1-147.7l19.2-138.1c13.4-94,53.7-214.9,118.9-364.5c88.2-205.3,97.8-237.9,99.8-372.2v-147.7l214.9-176.5l214.9-176.5l71-201.4l71-201.4l-30.7-161.1l-28.8-161.1l82.5-126.6c80.6-122.8,86.3-128.5,165-128.5c53.7,0,115.1-21.1,193.8-65.2l117-65.2l101.7,257.1c55.6,142,107.4,257.1,117,257.1c26.9,0,13.4-113.2-24.9-201.4c-21.1-49.9-38.4-94-38.4-97.8c0-5.8,63.3,44.1,141.9,111.3l142,118.9l-118.9,130.4l-119,130.4l-69.1,268.6c-38.4,147.7-63.3,268.6-55.6,268.6c7.7,0,44.1-28.8,80.6-61.4c61.4-57.5,71-80.6,94-220.6c24.9-149.6,28.8-159.2,109.3-226.4l82.5-69.1v193.7c0,149.6,5.8,191.8,26.8,191.8c19.2,0,28.8-44.1,38.4-166.9c7.7-94,17.3-199.5,23-237.9l9.6-71l166.9,72.9c170.7,72.9,195.7,97.8,226.4,220.6l13.4,55.6l-55.6-34.6c-130.4-84.4-147.7-88.2-69.1-15.3c44.1,42.2,74.8,80.6,67.1,86.3c-7.7,3.8-67.1,23-130.4,42.2c-94,26.9-107.4,36.5-76.7,49.9c21.1,7.7,59.5,15.4,86.3,17.3c95.9,3.8-7.7,32.6-161.1,46c-84.4,5.8-155.4,15.3-161.2,21.1c-3.8,3.8-3.8,21.1,1.9,38.4c9.6,23,44.1,28.8,153.5,28.8h142l-9.6,49.9c-11.5,59.5-15.4,61.4,153.5-53.7c153.5-101.7,159.2-103.6,188-32.6l26.9,61.4l42.2-53.7l42.2-53.7l95.9,69.1c142,105.5,149.6,117,101.7,184.2c-59.5,82.5-49.9,88.3,36.5,19.2l76.7-63.3l168.8,49.9c159.2,46,166.9,49.9,161.2,97.8c-5.8,46,0,51.8,47.9,51.8c94,1.9,255.1,118.9,255.1,186.1c0,36.4-21.1,55.6-99.8,92.1c-55.6,26.8-86.3,48-65.2,48c30.7,0,32.6,9.6,23,86.3c-13.4,84.4-13.4,86.3,38.4,86.3c46.1,0,49.9-3.8,38.4-65.2c-11.5-61.4-7.7-67.1,74.8-113.2l86.3-48l224.5,182.2c124.7,99.7,239.8,193.8,255.1,209.1c24.9,24.9,24.9,26.9-1.9,17.3c-115.1-42.2-34.5,218.7,82.5,266.6c59.5,26.9,63.3,25,97.8-30.7c19.2-34.5,44.1-53.7,61.4-46.1c13.4,3.8,57.5,15.4,95.9,23c57.5,9.6,76.7,24.9,97.8,76.7c15.4,34.5,57.5,86.3,94,115.1c72.9,55.6,82.5,86.3,38.4,122.8c-46,38.4-32.6,63.3,13.4,30.7c57.5-40.3,72.9-38.4,72.9,7.7c0,44.1,7.7,46,59.5,17.3c30.7-15.3,48-13.4,76.7,13.4c19.2,17.3,36.5,38.4,36.5,48c0,7.7-51.8,76.7-115.1,151.6c-63.3,74.8-115.1,140-115.1,143.9c0,3.8,34.5,71,76.7,149.6c101.7,188,159.2,236,69.1,57.6c-38.4-76.7-69.1-147.7-69.1-157.3s24.9-26.8,55.6-36.4c42.2-15.4,57.5-34.6,67.1-88.3c7.7-36.4,19.2-71,28.8-76.7c7.7-5.8,34.5,92.1,59.5,214.9l44.1,224.5l180.3,268.6c138.1,207.2,224.5,310.8,374.1,454.7c172.6,163.1,216.8,195.7,377.9,266.7c101.7,46,188,84.4,193.8,88.3c3.8,3.8-3.8,24.9-17.3,48c-17.3,28.8-19.2,44.1-1.9,53.7c21.1,13.4-247.5,282-1624.9,1634.4c-475.8,466.2-590.9,571.7-642.7,579.3c-34.5,5.8-512.2,19.2-1060.8,30.7c-548.7,11.5-1043.6,24.9-1097.3,30.7l-101.7,9.6V3244v159.2l-145.8,180.3c-78.7,97.8-151.5,180.3-161.1,184.2c-9.6,3.8-61.4-17.3-117-44.1c-115.1-59.5-132.4-49.9-132.4,82.5v80.6h-80.6c-310.8,3.8-2589.8,132.4-2609,147.7C2087.4,4049.7,2070.2,4040.1,2039.5,4001.8z"/><path d="M8339.4-1285.3c-7.7-7.7-13.4-26.8-13.4-44.1c0-21.1,5.8-23,21.1-7.7c11.5,11.5,19.2,30.7,13.4,44.1C8356.6-1281.4,8347-1277.6,8339.4-1285.3z"/></g></g>
</svg>
