<?xml version="1.0" encoding="utf-8"?>
<!-- Svg Vector Icons : http://www.onlinewebfonts.com/icon -->
<!DOCTYPE svg PUBLIC "-//W3C//DTD SVG 1.1//EN" "http://www.w3.org/Graphics/SVG/1.1/DTD/svg11.dtd">
<svg fill="#6439FF" version="1.1" xmlns="http://www.w3.org/2000/svg" xmlns:xlink="http://www.w3.org/1999/xlink" x="0px" y="0px" viewBox="0 0 1000 1000" enable-background="new 0 0 1000 1000" xml:space="preserve">
<metadata> Svg Vector Icons : http://www.onlinewebfonts.com/icon </metadata>
<g><g transform="translate(0.000000,511.000000) scale(0.100000,-0.100000)"><path d="M6275,2034.4l-42.5-195.3l-212.8-224.3c-116-123.8-232.1-247.6-259.2-272.7l-50.3-46.4l-71.6,42.5c-38.7,23.2-71.5,40.6-75.4,36.7c-1.9-3.9-58-110.2-125.7-237.9c-65.8-127.6-143.1-268.8-168.3-313.3l-46.4-81.2l-110.2,40.6c-119.9,44.5-158.6,79.3-158.6,141.2c0,50.3-129.6,123.8-145.1,81.2c-5.8-11.6-48.3-123.8-92.8-247.6c-73.5-197.3-118-274.6-369.4-644l-284.3-421.6l32.9-50.3c30.9-46.4,30.9-52.2-13.5-133.5c-29-52.2-81.2-108.3-139.2-145c-85.1-54.2-94.8-56.1-135.4-29c-42.6,27.1-56.1,25.1-172.1-27.1c-104.4-46.4-137.3-52.2-179.9-36.7c-73.5,29-87,25.1-87-23.2c0-25.1-7.7-54.1-15.5-65.7c-7.7-9.7-104.4-38.7-214.7-63.8l-201.1-44.5l-50.3,40.6c-112.2,90.9-123.8,90.9-245.6,3.8c-60-42.5-119.9-79.3-131.5-79.3c-27.1,0-363.6,212.7-394.5,247.6c-11.6,17.4-23.2,58-23.2,89c-1.9,160.5-5.8,160.5-234-27.1c-135.4-110.3-284.3-208.9-419.7-280.4c-208.9-108.3-212.7-112.2-330.7-280.4l-119.9-170.2l-119.9-23.2c-108.3-19.3-123.8-29-162.5-92.8c-38.7-71.6-46.4-73.5-346.2-158.6c-205-58-288.2-89-249.5-92.8c32.9-1.9,998-61.9,2146.8-131.5l2088.8-127.7l2021.1,11.6c1112.1,5.8,2170,17.4,2353.7,25.1c292,9.7,328.8,15.5,319.1,42.6c-9.7,27.1-3.9,27.1,40.6-3.9l52.2-32.9v139.3l1.9,141.2l58-106.4c32.9-58,54.2-92.8,50.3-77.4c-3.9,15.5-36.7,121.8-71.6,234l-61.9,207l-168.3,21.3c-234,29-222.4,32.9-208.9-48.4c9.7-60,7.7-67.7-21.3-56.1c-69.6,29-98.6,30.9-168.3,11.6c-77.4-21.3-75.4-29-36.8,92.9c9.7,29-11.6,50.3-96.7,100.5c-77.4,46.4-108.3,77.4-108.3,106.4c0,23.2-5.8,67.7-11.6,100.6c-9.7,52.2-17.4,56.1-46.4,36.8c-75.4-46.4-415.8,135.4-375.2,203.1c7.7,11.6,29-5.8,52.2-42.5l40.6-61.9l50.3,61.9l50.3,61.9l75.4-96.7c60-81.2,81.2-94.8,108.3-79.3c61.9,32.9,83.2,17.4,210.8-147c69.6-89,135.4-162.5,148.9-164.4c56.1-1.9,118,46.4,137.3,108.3c17.4,58,15.5,65.8-15.5,65.8c-25.1,0-32.9,11.6-25.1,34.8c15.5,58-79.3,152.8-168.3,168.3c-65.8,11.6-100.6,38.7-241.8,195.3c-90.9,100.6-164.4,191.5-164.4,203.1c0,29,119.9-71.6,280.4-232.1c73.5-75.4,139.3-137.3,145.1-137.3s23.2,7.8,38.7,19.3c23.2,15.5,23.2,21.3-1.9,52.2c-25.2,27.1-27.1,52.2-11.6,121.9l17.4,85.1l81.2-94.8l83.2-94.8L8770-710c5.8,69.6,5.8,131.5,1.9,139.3c-5.8,7.7-32.9,15.5-61.9,15.5c-87,0-110.2,29-48.3,56.1c54.2,25.1,54.2,25.1-89,77.4l-145.1,50.3L8187.8-56.3c-218.5,288.2-249.5,319.1-357.8,377.1c-110.2,56.1-116,61.9-65.8,67.7c75.4,9.7,152.8-63.8,433.2-413.9c129.6-162.5,243.7-299.8,255.3-305.6c9.7-7.7,27.1,2,36.7,19.3c15.5,27.1,25.1,27.1,96.7-9.7c44.5-23.2,85.1-40.6,92.8-40.6c11.6,0-3.8,179.9-25.1,266.9c-9.7,40.6-5.8,42.6,42.5,23.2c69.6-27.1,67.7-27.1,67.7,38.7c0,52.2-13.5,63.8-168.3,143.1c-156.7,79.3-172.1,92.8-205,174.1c-36.7,87-38.7,89-123.8,89c-135.4,0-303.7,69.6-382.9,156.7c-67.7,75.4-85.1,114.1-48.3,114.1c21.3,0,27.1,63.8,7.7,81.2c-5.8,5.8-63.8-1.9-129.6-15.5c-205-48.4-218.5-50.3-191.5-30.9c19.3,13.5,19.3,21.3-5.8,42.6c-17.4,15.5-23.2,32.9-11.6,46.4c9.7,11.6,32.9,89,52.2,172.1c31,133.5,38.7,148.9,79.3,148.9c32.9,0,44.5,11.6,44.5,44.5c0,27.1,21.3,54.2,58,75.4c54.2,30.9,58,40.6,58,148.9v114.1l-129.6,108.3c-69.6,58-183.7,129.6-251.4,158.6c-116,50.3-123.8,58-112.2,102.5c5.8,27.1,13.5,65.8,15.5,85.1c5.8,50.3-133.4,143.1-230.1,154.7l-77.4,9.7l-67.7-123.8c-36.8-71.6-75.4-119.9-89-116c-13.5,5.8-131.5,92.8-265,193.4c-131.5,102.5-247.6,185.7-257.2,185.7C6325.3,2229.7,6298.2,2142.7,6275,2034.4z M7719.8-855.1c164.4-63.8,145.1-87-38.7-46.4c-77.4,17.4-96.7,29-96.7,60c0,23.2,9.7,34.8,25.1,29C7621.1-818.3,7671.4-837.7,7719.8-855.1z"/><path d="M9591.9,204.8c-102.5-7.7-114.1-13.5-172.1-85.1l-61.9-77.3l44.5-46.4l44.5-46.4l-52.2-21.3c-29-9.7-60-19.3-69.6-19.3s-23.2-48.3-29-104.4c-11.6-90.9-23.2-112.2-77.4-148.9c-58-40.6-67.7-60-112.2-265c-44.5-206.9-44.5-226.3-17.4-321.1c34.8-123.8,52.2-143.1,81.2-90.9c11.6,23.2,29,36.7,38.7,30.9c25.1-15.5,96.7,60,96.7,100.6c0,29-3.9,27.1-30.9-5.8c-21.3-27.1-27.1-29-21.3-5.8c5.8,17.4,15.5,81.2,23.2,143.1c11.6,79.3,27.1,121.9,60,148.9c23.2,21.3,40.6,48.4,34.8,61.9c-3.9,11.6,1.9,34.8,11.6,50.3c17.4,25.1,25.1,23.2,54.2-15.5c32.9-42.5,36.8-42.5,63.8-9.7c17.4,19.3,79.3,177.9,139.2,353.9c58,176,112.2,334.6,119.9,353.9c9.7,25.2,5.8,32.9-21.3,29C9717.6,212.5,9651.9,208.6,9591.9,204.8z"/><path d="M9822.1,117.7C9748.6,11.4,9744.7-2.2,9795,15.2c23.2,9.7,121.8,203.1,102.5,203.1C9895.6,218.3,9860.8,173.8,9822.1,117.7z"/></g></g>
</svg>
