<?xml version="1.0" encoding="utf-8"?>
<!-- Svg Vector Icons : http://www.onlinewebfonts.com/icon -->
<!DOCTYPE svg PUBLIC "-//W3C//DTD SVG 1.1//EN" "http://www.w3.org/Graphics/SVG/1.1/DTD/svg11.dtd">
<svg fill="#6439FF" version="1.1" xmlns="http://www.w3.org/2000/svg" xmlns:xlink="http://www.w3.org/1999/xlink" x="0px" y="0px" viewBox="0 0 1000 1000" enable-background="new 0 0 1000 1000" xml:space="preserve">
<metadata> Svg Vector Icons : http://www.onlinewebfonts.com/icon </metadata>
<g><g transform="translate(0.000000,511.000000) scale(0.100000,-0.100000)"><path d="M7829.1,3246.3c-1265.7-40.3-1611.4-44.2-3338.1-38.4c-1824.6,7.7-1924.5,5.8-1924.5-25c0-19.2-15.4-40.3-34.6-48c-30.7-11.5-30.7-13.4-1.9-34.6c19.2-13.4,44.2-88.3,63.4-176.7c17.3-82.6,34.6-155.6,40.3-159.4c3.8-5.8,30.7,5.8,57.6,23c42.3,28.8,53.8,28.8,103.7,3.8c49.9-26.9,57.6-44.2,78.8-184.4c26.9-174.8,15.4-211.3-57.6-172.9c-59.5,32.7-63.4,17.3-19.2-84.5c48-113.3,48-113.3,0-88.3c-21.1,11.5-48,15.4-57.6,9.6c-9.6-5.8-28.8,5.8-42.3,25c-19.2,26.9-36.5,32.7-67.2,21.1c-38.4-13.4-38.4-21.1-21.1-94.1c21.1-80.7,28.8-84.5,115.2-48c23,9.6,34.6-1.9,42.3-44.2c9.6-34.6,46.1-80.7,107.6-126.8c74.9-57.6,96-84.5,96-126.8c0-30.7-11.5-59.5-23.1-63.4c-15.4-5.8-11.5-11.5,9.6-11.5c26.9-1.9,32.7-19.2,32.7-92.2c0-140.2,15.4-172.9,107.6-226.6c46.1-26.9,84.5-55.7,84.5-65.3c0-7.7-26.9-38.4-59.5-71.1c-80.7-73-182.5-293.9-211.3-455.2l-25-128.7l59.5-63.4c63.4-65.3,63.4-109.5,3.8-109.5c-44.2,0-44.2,17.3,1.9-182.5c21.1-90.3,38.4-176.7,38.4-190.1c0-13.4-26.9-61.5-59.5-105.6l-57.6-80.7l-65.3,48l-63.4,49.9l-25-96c-19.2-73-48-119.1-126.8-195.9l-101.8-99.9l-59.5,55.7c-40.3,38.4-63.4,50-69.1,32.7c-5.8-11.5-15.4-19.2-23-13.4c-9.6,3.8-26.9-28.8-40.3-73l-25-80.7l-19.2,73l-17.3,73l-48-44.2l-49.9-44.2l32.6,61.5c40.3,78.7,38.4,96-1.9,59.5c-21.1-19.2-48-25-71.1-17.3c-32.7,11.5-28.8,17.3,25,38.4c32.7,15.4,74.9,49.9,92.2,80.7l32.6,55.7l44.2-42.3L2336-88v82.6v82.6l-40.3-36.5c-30.7-26.9-23-1.9,32.7,101.8c69.1,128.7,74.9,134.4,86.4,86.4c7.7-28.8,13.4-96,15.4-151.7c1.9-140.2,30.7-140.2,55.7,0c17.3,88.4,36.5,132.5,80.7,174.8c46.1,48,57.6,51.9,57.6,25c0-19.2-13.4-61.5-30.7-94.1c-28.8-57.6-28.8-61.5,3.8-88.3c86.4-63.4,99.9-63.4,111.4-7.7c55.7,272.7,69.1,416.8,48,468.7c-26.9,65.3-25,63.4-105.6,13.4c-69.1-42.3-76.8-38.4-46.1,21.1c13.4,25,11.5,40.3-9.6,57.6c-15.4,13.5-28.8,42.3-28.8,63.4c0,36.5,3.8,36.5,55.7-13.4l57.6-55.7l-26.9,103.7c-36.5,132.5-36.5,142.1,1.9,111.4c28.8-23,36.5-21.1,61.5,17.3c15.4,23.1,38.4,42.3,49.9,42.3c63.4,1.9,69.1,30.7,30.7,161.3c-36.5,130.6-65.3,184.4-99.9,184.4c-9.6,0-13.4-15.4-7.7-32.7c5.8-19.2,15.4-69.1,23.1-111.4c13.4-76.8,13.4-76.8-26.9-42.3c-38.4,34.6-40.3,34.6-126.8-134.4c-84.5-163.3-92.2-172.9-207.4-230.5c-115.2-55.7-126.8-67.2-222.8-238.2c-92.2-161.3-99.9-182.5-71.1-203.6c26.9-19.2,51.9-13.4,136.4,23.1c57.6,25,103.7,42.3,103.7,38.4c0-15.4-219-124.8-247.8-124.8c-98,1.9-88.4,28.8,113.3,376.5c163.3,278.5,197.8,353.4,195.9,409.1c-3.8,51.9,0,61.5,15.4,40.3c15.4-23.1,21.1-21.1,34.6,19.2c9.6,36.5,15.4,15.4,23.1-84.5l9.6-130.6L2553,997.2c59.5,88.3,109.5,167.1,109.5,176.7s-44.2,94.1-98,190.1c-71.1,126.8-96,188.2-90.3,226.6c5.8,30.7,7.7,55.7,5.8,55.7s-30.7-9.6-63.4-21.1c-59.5-21.1-61.5-21.1-32.7-86.4c23.1-53.8,23.1-74.9,3.8-105.6c-32.7-53.8-46.1-46.1-61.5,40.3c-17.3,98-34.6,107.6-107.6,53.8l-59.5-44.2l-74.9,86.4c-40.3,48-74.9,98-74.9,111.4c0,17.3-17.3,13.4-55.7-13.4c-71.1-49.9-73-49.9-501.3,9.6c-397.6,53.8-382.2,49.9-946.9,322.7c-364.9,176.7-380.3,182.5-343.8,124.8l38.4-61.5l-55.7-149.8c-53.8-147.9-53.8-149.8-26.9-299.6c21.1-124.8,53.8-201.7,199.7-472.5l174.8-322.7l17.3-272.7c15.4-253.5,21.1-284.3,86.4-430.2C661.2-32.3,665-49.6,665-258.9l1.9-217l48,92.2c25,50,53.8,90.3,63.4,90.3c7.7,0,42.3-28.8,74.9-65.3c40.3-46.1,88.4-71.1,157.5-88.4c53.8-13.4,92.2-28.8,86.4-36.5c-7.7-5.8-65.3-28.8-130.6-51.9c-101.8-34.6-119.1-46.1-124.8-90.3c-7.7-63.4-17.3-65.3-65.3-1.9c-21.1,26.9-42.2,44.2-46.1,40.3c-5.8-3.8,1.9-73,13.5-153.7l21.1-147.9h138.3c122.9-1.9,144-5.8,203.6-57.6l67.2-55.7l-51.9-1.9c-28.8,0-57.6,9.6-63.4,19.2c-26.9,44.2-48,13.4-48-67.2c0-82.6-1.9-86.4-40.3-65.3c-36.5,19.2-38.4,17.3-23-25c7.7-23,13.4-86.4,9.6-140.2c-3.8-82.6,1.9-99.9,48-138.3c49.9-38.4,49.9-42.2,9.6-30.7c-26.9,5.8-57.6-1.9-78.7-21.1c-32.7-30.7-36.5-30.7-48-1.9c-19.2,53.8-13.4,86.4,17.3,86.4s36.5,32.7,15.4,86.4c-9.6,28.8-15.4,28.8-34.6-9.6c-21.1-40.3-25-32.7-48,82.6c-15.4,71.1-28.8,124.8-32.7,122.9c-9.6-11.5-82.6-576.2-74.9-583.9c3.8-3.8,28.8,1.9,53.8,15.4c40.3,17.3,61.5,11.5,144.1-38.4l96-59.6l105.6,46.1c101.8,46.1,103.7,46.1,151.7,9.6c32.6-25,78.7-36.5,155.6-36.5c107.5,0,109.5-1.9,195.9-103.7l88.3-101.8l119.1,23.1c115.2,25,122.9,25,203.6-23.1c71.1-42.2,224.7-218.9,297.7-343.8c5.8-11.5,28.8-153.7,51.9-315c21.1-161.3,40.3-297.7,44.2-299.6c1.9-1.9,132.5-38.4,291.9-82.6l286.2-76.8l307.3,136.4l307.3,136.4l332.3-17.3l330.3-17.3l82.6-80.7l82.6-82.6l172.9,26.9c119.1,19.2,220.9,49.9,326.5,99.9c149.8,69.2,161.3,71.1,413,80.7l259.3,7.7l190.1,96c138.3,69.1,240.1,105.6,368.8,130.6c132.5,25,195.9,48,240.1,84.5c32.6,26.9,69.1,49.9,84.5,49.9c13.4,0,146,13.4,295.8,28.8c220.9,23.1,284.2,36.5,343.8,73c71.1,46.1,76.8,46.1,1404,98c733.7,28.8,1338.7,53.8,1342.5,57.6c3.9,3.8-17.3,44.2-44.2,90.3c-49.9,76.8-49.9,84.5-25,140.2c25,51.9,25,69.1,0,146c-15.3,48-59.5,130.6-96,182.5l-69.1,96l-25,518.6c-69.1,1475.1-197.8,4229.3-197.8,4260c0,26.9-17.3,32.7-99.9,30.7C9286.9,3294.3,8605.1,3273.2,7829.1,3246.3z"/><path d="M2144,3221.3c0-9.6,13.4-13.4,28.8-7.7c15.4,7.7,28.8,15.4,28.8,19.2c0,3.8-13.4,7.7-28.8,7.7S2144,3232.8,2144,3221.3z"/><path d="M2585.7,2725.8c0-9.6,23.1-36.5,51.9-63.4l49.9-46.1l-44.2,63.4C2595.3,2743.1,2585.7,2752.7,2585.7,2725.8z"/><path d="M2263,2645.1c-44.2-57.6-57.6-126.8-21.1-105.6c9.6,7.7,36.5-1.9,55.7-19.2c53.8-49.9,82.6-17.3,69.1,74.9l-11.5,78.8l42.3-73c44.2-74.9,65.3-80.7,99.9-26.9c15.4,23.1,9.6,42.3-26.9,80.7C2405.2,2723.9,2316.8,2720,2263,2645.1z"/><path d="M2061.4,2516.4c-30.7-7.7-34.6-21.1-23.1-97.9c17.3-115.2,13.4-109.5,115.2-144l86.4-30.7v48c0,42.2-111.4,240.1-134.4,236.2C2099.8,2526,2080.6,2522.2,2061.4,2516.4z"/><path d="M2566.5,2468.4c0-34.6,34.6-65.3,53.8-46.1c5.8,7.7-3.8,26.9-21.1,44.2C2568.4,2497.2,2566.5,2497.2,2566.5,2468.4z"/><path d="M2336,2349.3c-23-69.1-21.1-76.8,28.8-124.8l51.9-49.9l-13.4,86.4c-7.7,48-21.1,103.7-28.8,124.8C2362.9,2416.5,2357.1,2410.8,2336,2349.3z"/><path d="M2570.3,1961.3l-59.5-146l49.9-67.2c28.8-36.5,69.1-73,90.3-82.6c30.7-9.6,46.1-46.1,69.1-155.6c26.9-130.6,32.7-142.1,82.6-151.7c28.8-5.8,67.2-32.7,86.4-63.4c44.2-63.4,61.5-49.9,61.5,48c0,59.5-11.5,84.5-57.6,122.9c-71.1,61.5-82.6,59.5-107.6-17.3l-21.1-61.5l-11.5,86.4c-7.7,48-17.3,126.8-23.1,174.8c-9.6,80.7-17.3,92.2-86.4,122.9c-42.3,19.2-76.8,40.3-76.8,48c0,5.8,28.8,40.3,65.3,74.9c53.8,51.9,76.8,61.5,117.2,51.9c28.8-7.7,48-5.8,44.2,1.9c-3.8,7.7-19.2,48-34.6,88.3c-21.1,57.6-36.5,71.1-78.8,71.1C2633.7,2107.3,2622.2,2092,2570.3,1961.3z"/><path d="M2816.2,1727c0-94.1,11.5-113.3,122.9-195.9c42.3-32.7,36.5-17.3-30.7,82.6c-28.8,40.3-34.6,71.1-25,128.7c11.5,69.1,9.6,76.8-26.9,76.8C2821.9,1819.2,2816.2,1807.7,2816.2,1727z"/><path d="M2568.4,1494.6c-1.9-51.9,3.8-61.5,21.1-44.2c15.4,15.4,15.4,32.7,0,65.3C2570.3,1558,2568.4,1556.1,2568.4,1494.6z"/><path d="M2727.8,768.6c-5.8-30.7-13.4-65.3-19.2-76.8c-7.7-26.9,82.6-94.1,99.9-76.8c11.5,11.5-46.1,205.5-61.5,205.5C2743.2,820.5,2735.5,797.4,2727.8,768.6z"/><path d="M2800.8,407.5c-13.4-26.9-23.1-86.4-23.1-130.6c0-76.8,0-78.8,30.7-36.5c36.5,51.9,74.9,38.4,46.1-17.3c-25-44.2-13.4-46.1,49.9-5.8c46.1,32.6,46.1,32.6,7.7,59.5c-21.1,15.4-44.2,59.5-49.9,103.7C2846.9,467.1,2831.5,474.8,2800.8,407.5z"/><path d="M2482-137.9c-5.8-9.6,0-26.9,15.4-38.4c19.2-15.4,30.7-15.4,48,3.8c11.5,15.4,15.4,32.7,7.7,38.4C2535.8-114.9,2493.5-116.8,2482-137.9z"/></g></g>
</svg>
