<?xml version="1.0" encoding="utf-8"?>
<!-- Svg Vector Icons : http://www.onlinewebfonts.com/icon -->
<!DOCTYPE svg PUBLIC "-//W3C//DTD SVG 1.1//EN" "http://www.w3.org/Graphics/SVG/1.1/DTD/svg11.dtd">
<svg fill="#6439FF" version="1.1" xmlns="http://www.w3.org/2000/svg" xmlns:xlink="http://www.w3.org/1999/xlink" x="0px" y="0px" viewBox="0 0 1000 1000" enable-background="new 0 0 1000 1000" xml:space="preserve">
<metadata> Svg Vector Icons : http://www.onlinewebfonts.com/icon </metadata>
<g><g transform="translate(0.000000,512.000000) scale(0.100000,-0.100000)"><path d="M4139.4,4960.5c-38.4-63.3-34.5-82.5,15.3-63.3c19.2,7.7,30.7,32.6,30.7,67.1c0,30.7-1.9,55.6-5.8,55.6C4177.8,5020,4158.6,4993.2,4139.4,4960.5z"/><path d="M3374.2,4872.3c-23-21.1-15.3-44.1,15.3-44.1c15.3,0,28.8,13.4,28.8,28.8C3418.3,4887.7,3395.3,4895.3,3374.2,4872.3z"/><path d="M3387.6,4759.2c-40.3-28.8-109.3-78.6-151.5-113.2c-76.7-61.4-76.7-61.4-155.3-32.6l-78.6,28.8L2856.4,4531c-132.3-97.8-176.4-118.9-420-193.7c-151.5-46-333.7-90.1-404.6-95.9l-130.4-13.4l-99.7,97.8l-99.7,97.8l-92.1-113.1c-63.3-80.6-103.6-115.1-136.2-115.1c-44.1,0-44.1-3.8-55.6-272.3c-7.7-151.5-13.4-429.6-13.4-621.4v-345.2l-63.3-61.4c-42.2-40.3-82.5-61.4-118.9-61.4c-30.7,0-147.7-51.8-272.3-118.9L733.4,2594l-134.2-224.4C466.8,2149,464.9,2145.2,464.9,2011v-136.2h82.5c44.1,0,90.1-7.7,101.7-15.3c11.5-7.7,46-82.5,78.6-166.9l57.5-151.5l-82.5-130.4c-84.4-130.4-84.4-132.3-84.4-304.9c0-141.9-7.7-187.9-38.4-237.8c-38.4-63.3-38.4-63.3-1.9-220.5l36.4-157.3l-55.6-191.8l-53.7-191.8L662.4-43c140-134.2,168.8-153.4,262.7-172.6c182.2-36.4,199.4-46,281.9-166.9c74.8-105.5,90.1-117,218.6-161.1c207.1-71,352.9-211,489-475.6c141.9-280,243.5-370.1,502.5-446.8c360.6-107.4,423.8-243.6,425.8-903.3c0-402.7,30.7-529.3,147.7-613.7c46-32.6,82.5-67.1,82.5-78.6c0-11.5-24.9-88.2-55.6-168.8l-57.5-145.7l61.4-391.3c55.6-354.8,67.1-398.9,122.7-487.1l61.4-95.9l187.9-44.1c337.5-82.5,301.1-57.5,339.4-232.1l32.6-153.4h2261.1h2263v326v324.1l-97.8,235.9c-97.8,234-97.8,239.7-111.2,502.5l-15.4,266.6l147.7,481.4l147.7,481.4l-30.7,247.4l-28.8,245.5l55.6,166.9c49.9,141.9,72.9,182.2,176.4,291.5l120.8,126.6l-49.8,134.2l-49.9,134.2l147.7,514L8847.6,214l-84.4,84.4l-84.4,84.4l-97.8-42.2c-88.2-38.3-109.3-61.4-234-249.3c-155.4-234-374-460.3-444.9-460.3c-23,1.9-63.3,17.3-86.3,36.4l-42.2,34.5l145.7,368.2l147.7,366.3l147.7,88.2l147.7,86.3l32.6,120.8l32.6,120.8l-94,88.2l-95.9,90.1l24.9,166.9c40.3,262.7,49.9,243.6-117,230.1c-78.6-7.7-143.8-7.7-143.8-3.8c0,5.8,21.1,63.3,47.9,128.5c40.3,99.7,48,147.7,48,324.1c0,205.2,0,209-59.5,276.2c-36.4,42.2-88.2,74.8-138.1,88.2c-44.1,11.5-124.6,32.6-178.3,47.9l-97.8,26.8l13.4,84.4c11.5,74.8,5.7,88.2-57.5,161.1c-65.2,76.7-82.5,84.4-335.6,155.3c-207.1,57.5-320.3,76.7-494.8,88.2l-224.4,11.5l-209,111.2c-193.7,101.7-255.1,122.7-943.5,306.9c-404.7,109.3-746,205.2-757.5,214.8s-53.7,97.8-94,197.5l-72.9,180.3l-113.2,23c-99.7,21.1-117,32.6-138.1,86.3c-24.9,59.4-32.6,63.3-141.9,71c-103.6,7.7-128.5,17.3-247.4,109.3l-130.4,101.6l-24.9-67.1c-23-57.5-38.4-69-132.3-88.2c-57.5-13.4-107.4-21.1-111.2-17.3c-1.9,1.9,53.7,140,124.7,303c130.4,293.4,130.4,297.3,99.7,351c-30.7,51.8-111.2,109.3-153.4,109.3C3470.1,4809,3427.9,4786,3387.6,4759.2z"/><path d="M3671.5,4766.8c11.5-34.5,92.1-57.5,92.1-26.8c0,15.3-13.4,32.6-30.7,38.4C3686.8,4795.6,3663.8,4791.8,3671.5,4766.8z"/><path d="M3916.9,4738.1l-67.1-28.8l55.6-17.3c32.6-9.6,57.5-13.4,57.5-11.5c1.9,1.9,13.4,23,26.9,47.9C4016.7,4778.4,4007.1,4780.3,3916.9,4738.1z"/><path d="M3780.8,4500.3c-67.1-53.7-126.6-101.6-132.3-105.5c-21.1-21.1,76.7,24.9,176.4,82.5c74.8,44.1,105.5,72.9,99.7,92.1c-7.7,15.3-13.4,28.8-17.3,28.8C3905.4,4598.1,3847.9,4554,3780.8,4500.3z"/><path d="M9388.5,1462.5l-21.1-67.1h72.9c59.5,0,74.8,7.7,84.4,44.1c21.1,78.6,13.4,90.1-51.8,90.1C9415.3,1529.6,9405.7,1521.9,9388.5,1462.5z"/><path d="M9202.4,1178.6c-51.8-82.5-86.3-111.2-161.1-141.9l-94-40.3l-13.4-120.8c-11.5-105.5-26.8-138.1-99.7-232.1c-105.5-134.2-115.1-235.9-30.7-337.5l51.8-61.4l111.2,136.2c72.9,92.1,109.3,153.4,109.3,189.9c0,32.6,34.5,97.8,95.9,178.3c53.7,69,95.9,132.3,95.9,140c0,7.7-15.3,30.7-32.6,51.8c-32.6,36.5-32.6,38.4,0,26.9c28.8-11.5,32.6,1.9,32.6,101.6c0,99.7,5.8,115.1,34.5,115.1c47.9,0,59.5,13.4,47.9,59.5C9330.9,1312.9,9269.5,1284.1,9202.4,1178.6z"/></g></g>
</svg>
